# Blender v2.80 (sub 75) OBJ File: 'SkeletonCharacterPack_export.blend'
# www.blender.org
mtllib character_skeleton_archer_mask.mtl
o character_skeleton_archer_mask_Cube.7657
v -0.172523 -0.028498 0.240220
v -0.121993 -0.045009 0.274009
v -0.063150 -0.056374 0.294683
v -0.000003 -0.059559 0.298253
v 0.063144 -0.056374 0.294683
v 0.121988 -0.045009 0.274009
v 0.172518 -0.028498 0.240220
v -0.228904 -0.002148 0.288858
v -0.161861 -0.023569 0.332724
v -0.083787 -0.035854 0.353757
v -0.000003 -0.039638 0.353421
v 0.083781 -0.035854 0.353757
v 0.161855 -0.023569 0.332723
v 0.228899 -0.002148 0.288858
v 0.449102 0.377858 0.155958
v 0.442201 0.277457 0.132257
v 0.323713 0.116553 0.050580
v 0.433799 0.331262 0.247026
v 0.427134 0.231604 0.221933
v 0.312683 0.083175 0.116283
v 0.388934 0.287652 0.331758
v 0.382957 0.188701 0.305501
v 0.280343 0.052020 0.177493
v 0.317562 0.252302 0.403187
v 0.312683 0.149923 0.382158
v 0.224550 0.220534 0.444692
v 0.214925 0.131645 0.432298
v 0.116234 0.250631 0.469054
v 0.114448 0.132587 0.475864
v -0.000003 0.271613 0.477862
v -0.000003 0.128095 0.492442
v -0.116240 0.250631 0.469054
v -0.114454 0.132587 0.475867
v -0.214930 0.131645 0.432301
v -0.317568 0.252302 0.403187
v -0.312688 0.149923 0.382158
v -0.388939 0.287652 0.331758
v -0.382963 0.188701 0.305501
v -0.280349 0.052020 0.177493
v -0.433805 0.331262 0.247026
v -0.427139 0.231604 0.221933
v -0.312688 0.083175 0.116283
v -0.449108 0.377858 0.155958
v -0.442207 0.277457 0.132257
v -0.323719 0.116553 0.050580
v 0.243978 0.068568 0.026226
v 0.235664 0.043432 0.075751
v 0.211291 0.019610 0.121699
v -0.211296 0.019610 0.121699
v -0.235670 0.043432 0.075751
v -0.243983 0.068568 0.026226
v 0.449102 0.396072 0.093576
v 0.433799 0.349789 0.184735
v 0.388934 0.306274 0.269569
v 0.317562 0.268602 0.342322
v 0.224550 0.235536 0.387932
v 0.116234 0.266016 0.411822
v -0.000003 0.292139 0.422972
v -0.116240 0.266016 0.411822
v -0.317568 0.268602 0.342322
v -0.388939 0.306274 0.269569
v -0.433805 0.349789 0.184735
v -0.449108 0.396072 0.093576
v 0.439077 0.210698 0.061740
v 0.424116 0.165277 0.150814
v -0.424122 0.165277 0.150814
v -0.439083 0.210698 0.061740
v -0.380257 0.122822 0.233811
v 0.380252 0.122822 0.233811
v -0.310479 0.069539 0.342228
v -0.216003 0.046781 0.397747
v 0.215998 0.046781 0.397747
v 0.310474 0.069539 0.342228
v -0.113645 0.040278 0.431666
v -0.000003 0.035533 0.438886
v 0.113640 0.040278 0.431663
v -0.165529 0.231271 0.456543
v -0.284874 0.247572 0.420365
v -0.222204 0.179968 0.438262
v -0.281246 0.255690 0.362870
v -0.163509 0.249302 0.400752
v -0.223280 0.197431 0.382977
vt 0.041667 0.333333
vt 0.000000 0.333333
vt 0.000000 0.250000
vt 0.041667 0.250000
vt 0.125000 0.179920
vt 0.125000 0.250000
vt 0.083333 0.250000
vt 0.083333 0.179920
vt 0.083333 0.333333
vt 0.083333 0.416667
vt 0.041667 0.416667
vt 0.208333 0.179920
vt 0.208333 0.250000
vt 0.166667 0.250000
vt 0.166667 0.179920
vt 0.416667 0.333333
vt 0.458333 0.333333
vt 0.458333 0.416667
vt 0.416667 0.416667
vt 0.333333 0.179920
vt 0.333333 0.250000
vt 0.291667 0.250000
vt 0.291667 0.179920
vt 0.250000 0.250000
vt 0.250000 0.179920
vt 0.416667 0.179920
vt 0.416667 0.250000
vt 0.375000 0.250000
vt 0.375000 0.179920
vt 0.500000 0.179920
vt 0.500000 0.250000
vt 0.458333 0.250000
vt 0.458333 0.179920
vt 0.500000 0.333333
vt 0.375000 0.333333
vt 0.333333 0.333333
vt 0.500000 0.416667
vt 0.500000 0.500000
vt 0.458333 0.500000
vt 0.291667 0.333333
vt 0.416667 0.500000
vt 0.375000 0.500000
vt 0.375000 0.416667
vt 0.333333 0.500000
vt 0.333333 0.416667
vt 0.291667 0.500000
vt 0.291667 0.416667
vt 0.250000 0.500000
vt 0.250000 0.416667
vt 0.250000 0.333333
vt 0.208333 0.500000
vt 0.208333 0.416667
vt 0.189373 0.500000
vt 0.208333 0.500000
vt 0.190150 0.500000
vt 0.125000 0.500000
vt 0.139646 0.500000
vt 0.141271 0.500000
vt 0.125000 0.500000
vt 0.166667 0.333333
vt 0.208333 0.333333
vt 0.125000 0.416667
vt 0.083333 0.500000
vt 0.041667 0.179920
vt 0.041667 0.500000
vt 0.000000 0.179920
vt 0.000000 0.500000
vt 0.000000 0.416667
vt 0.125000 0.333333
vt 0.166667 0.416667
vt 0.500000 0.500000
vt 0.458333 0.500000
vt 0.333333 0.500000
vt 0.291667 0.500000
vt 0.041667 0.500000
vt 0.000000 0.500000
vt 0.416667 0.500000
vt 0.375000 0.500000
vt 0.083333 0.500000
vt 0.250000 0.500000
vt 0.166667 0.500000
vt 0.166667 0.500000
vt 0.166667 0.456016
vn -0.8543 -0.5198 -0.0032
vn -0.8745 -0.4756 -0.0953
vn -0.5959 -0.7518 -0.2823
vn -0.5825 -0.7893 -0.1941
vn -0.4465 -0.8942 -0.0330
vn -0.5140 -0.8506 0.1106
vn -0.5723 -0.8128 -0.1088
vn -0.5226 -0.8374 -0.1602
vn -0.7836 -0.6017 0.1551
vn -0.8458 -0.2707 0.4598
vn -0.9472 -0.2032 0.2481
vn -0.1331 -0.9511 0.2788
vn -0.1539 -0.8637 0.4799
vn -0.3362 -0.8694 0.3622
vn -0.2890 -0.9433 0.1630
vn 0.7836 -0.6017 0.1551
vn 0.8543 -0.5198 -0.0032
vn 0.9472 -0.2032 0.2481
vn 0.8458 -0.2707 0.4598
vn 0.2890 -0.9433 0.1630
vn 0.3362 -0.8694 0.3622
vn 0.1539 -0.8637 0.4799
vn 0.1331 -0.9511 0.2788
vn 0.0000 -0.8618 0.5073
vn 0.0000 -0.9456 0.3253
vn 0.5226 -0.8374 -0.1602
vn 0.5723 -0.8128 -0.1088
vn 0.5140 -0.8506 0.1106
vn 0.4465 -0.8942 -0.0330
vn 0.5574 -0.7743 -0.2996
vn 0.5959 -0.7518 -0.2823
vn 0.5825 -0.7893 -0.1941
vn 0.5391 -0.8111 -0.2267
vn 0.8745 -0.4756 -0.0953
vn 0.6731 -0.6115 0.4161
vn 0.4224 -0.5942 0.6845
vn 0.9872 -0.1202 0.1045
vn 0.9885 -0.0956 0.1172
vn 0.9631 -0.1244 0.2385
vn 0.2055 -0.5916 0.7796
vn 0.8472 -0.1739 0.5019
vn 0.6434 -0.1908 0.7413
vn 0.6488 -0.2847 0.7057
vn 0.3901 -0.1182 0.9132
vn 0.4051 -0.2496 0.8795
vn 0.1981 0.0270 0.9798
vn 0.2191 -0.2027 0.9544
vn 0.0000 0.0807 0.9967
vn 0.0000 -0.2031 0.9792
vn 0.0000 -0.6119 0.7909
vn -0.1777 0.0685 0.9817
vn -0.2249 -0.1976 0.9541
vn -0.5432 0.8047 0.2396
vn -0.3000 0.9124 0.2785
vn -0.3089 0.9101 0.2763
vn -0.5495 0.8006 0.2388
vn 0.1564 0.9626 0.2211
vn 0.4950 0.8466 0.1957
vn 0.3631 0.9095 0.2024
vn 0.1894 0.9499 0.2485
vn -0.4224 -0.5942 0.6845
vn -0.2055 -0.5917 0.7796
vn -0.6501 -0.2870 0.7035
vn -0.6393 -0.1961 0.7435
vn -0.8472 -0.1739 0.5019
vn -0.5391 -0.8111 -0.2267
vn -0.9631 -0.1244 0.2385
vn -0.5574 -0.7743 -0.2996
vn -0.9885 -0.0956 0.1172
vn -0.9872 -0.1202 0.1045
vn -0.6731 -0.6115 0.4161
vn -0.4167 -0.2529 0.8732
vn -0.4007 0.8780 0.2618
vn -0.7754 0.6057 0.1785
vn -0.7291 0.6564 0.1939
vn 0.2605 0.9260 0.2732
vn 0.1101 0.9604 0.2558
vn 0.0025 0.9663 0.2573
vn 0.2656 0.9254 0.2704
vn 0.7754 0.6057 0.1785
vn 0.4007 0.8780 0.2618
vn 0.7291 0.6564 0.1939
vn -0.2115 0.9434 0.2555
vn -0.2370 0.9340 0.2672
vn -0.3312 0.9050 0.2671
vn -0.2115 0.9416 0.2621
vn -0.3071 0.0001 0.9517
vn 0.2370 0.9340 0.2672
vn 0.3312 0.9050 0.2671
vn -0.0000 0.9523 0.3050
vn -0.6841 0.6964 0.2167
vn 0.6835 0.7083 0.1761
vn -0.4741 -0.1967 0.8582
vn -0.4157 -0.1295 0.9003
usemtl PurpleDark
s 1
f 66/1/1 67/2/2 45/3/3 42/4/4
s 2
f 1/5/5 8/6/6 39/7/7 49/8/8
s 3
f 68/9/9 38/10/10 41/11/11 66/1/1
s 4
f 3/12/12 10/13/13 9/14/14 2/15/15
s 5
f 69/16/16 65/17/17 19/18/18 22/19/19
s 6
f 2/15/15 9/14/14 8/6/6 1/5/5
s 7
f 6/20/20 13/21/21 12/22/22 5/23/23
s 8
f 5/23/23 12/22/22 11/24/24 4/25/25
s 9
f 4/25/25 11/24/24 10/13/13 3/12/12
s 10
f 48/26/26 23/27/27 14/28/28 7/29/29
s 11
f 7/29/29 14/28/28 13/21/21 6/20/20
s 12
f 46/30/30 17/31/31 20/32/32 47/33/33
s 13
f 64/34/34 65/17/17 20/32/32 17/31/31
s 14
f 73/35/35 72/36/36 13/21/21 14/28/28
s 15
f 16/37/37 15/38/38 18/39/39 19/18/18
s 16
f 47/33/33 20/32/32 23/27/27 48/26/26
s 17
f 76/40/40 12/22/22 13/21/21 72/36/36
s 18
f 19/18/18 18/39/39 21/41/41 22/19/19
s 19
f 22/19/19 21/41/41 24/42/42 25/43/43
s 20
f 25/43/43 24/42/42 26/44/44 27/45/45
s 21
f 69/16/16 22/19/19 25/43/43 73/35/35
s 22
f 27/45/45 26/44/44 28/46/46 29/47/47
s 23
f 29/47/47 28/46/46 30/48/48 31/49/49
s 24
f 76/40/40 29/47/47 31/49/49 75/50/50
s 25
f 31/49/49 30/48/48 32/51/51 33/52/52
s 26
f 77/53/53 32/51/54 59/54/55 81/55/56
s 27
f 35/56/57 78/57/58 80/58/59 60/59/60
s 28
f 71/60/61 9/14/14 10/13/13 74/61/62
s 29
f 36/62/63 35/56/64 37/63/65 38/10/10
s 30
f 49/8/8 39/7/7 42/4/4 50/64/66
s 31
f 38/10/10 37/63/65 40/65/67 41/11/11
s 32
f 50/64/66 42/4/4 45/3/3 51/66/68
s 33
f 41/11/11 40/65/67 43/67/69 44/68/70
s 34
f 70/69/71 36/62/63 38/10/10 68/9/9
s 35
f 70/69/71 71/60/61 34/70/72 36/62/63
s 36
f 75/50/50 31/49/49 33/52/52 74/61/62
s 37
f 18/39/73 15/38/74 52/71/74 53/72/75
s 38
f 28/46/76 26/44/77 56/73/78 57/74/79
s 39
f 43/67/80 40/65/81 62/75/82 63/76/80
s 40
f 24/42/83 21/41/84 54/77/85 55/78/86
s 41
f 33/52/52 32/51/51 77/53/87
s 42
f 21/41/84 18/39/73 53/72/75 54/77/85
s 43
f 37/63/88 35/56/57 60/59/60 61/79/89
s 44
f 32/51/54 30/48/90 58/80/90 59/54/55
s 45
f 40/65/81 37/63/88 61/79/89 62/75/82
s 46
f 30/48/90 28/46/76 57/74/79 58/80/90
s 47
f 26/44/77 24/42/83 55/78/86 56/73/78
s 48
f 11/24/24 75/50/50 74/61/62 10/13/13
s 49
f 8/6/6 9/14/14 71/60/61 70/69/71
s 50
f 8/6/6 70/69/71 68/9/9 39/7/7
s 51
f 34/70/72 71/60/61 74/61/62 33/52/52
s 52
f 12/22/22 76/40/40 75/50/50 11/24/24
s 53
f 23/27/27 69/16/16 73/35/35 14/28/28
s 54
f 29/47/47 76/40/40 72/36/36 27/45/45
s 55
f 25/43/43 27/45/45 72/36/36 73/35/35
s 56
f 16/37/37 19/18/18 65/17/17 64/34/34
s 57
f 23/27/27 20/32/32 65/17/17 69/16/16
s 58
f 39/7/7 68/9/9 66/1/1 42/4/4
s 59
f 41/11/11 44/68/70 67/2/2 66/1/1
s 60
f 77/53/53 81/55/56 82/81/91 79/82/91
s 61
f 79/82/92 82/81/92 80/58/59 78/57/58
s 62
f 36/62/63 78/57/93 35/56/64
s 63
f 34/70/72 33/52/52 77/53/87 79/83/94
s 64
f 34/70/72 79/83/94 78/57/93 36/62/63
