# Blender v2.80 (sub 75) OBJ File: 'SkeletonCharacterPack_export.blend'
# www.blender.org
mtllib arrow_green_broken.mtl
o arrow_green_broken_Cylinder.609
v 0.009250 -0.219799 -0.016021
v -0.018499 -0.219799 0.000000
v 0.009250 -0.219799 0.016021
v 0.019729 -0.240710 -0.034171
v -0.039458 -0.240710 0.000001
v 0.019729 -0.240709 0.034173
v -0.000000 -0.325592 0.000001
v 0.009249 0.000959 -0.016021
v 0.009249 0.000959 0.016021
v -0.018499 0.001010 0.000000
v 0.182576 0.137708 -0.016021
v 0.294101 0.226340 -0.015193
v 0.165385 0.159490 -0.000000
v 0.277798 0.246996 -0.000000
v 0.182577 0.137708 0.016021
v 0.294101 0.226340 0.015193
v 0.212712 0.228437 -0.074995
v 0.300964 0.280835 -0.051533
v 0.293188 0.126474 -0.000000
v 0.356264 0.210770 -0.000000
v 0.212712 0.228437 0.074995
v 0.300964 0.280835 0.051533
v -0.007942 0.022690 0.000000
vt 0.125000 0.500000
vt 0.125000 0.750000
vt 0.125000 0.750000
vt 0.125000 0.500000
vt 0.125000 0.500000
vt 0.125000 0.750000
vt 0.125000 0.750000
vt 0.125000 0.500000
vt 0.125000 0.500000
vt 0.125000 0.750000
vt 0.125000 0.750000
vt 0.125000 0.500000
vt 0.125000 0.500000
vt 0.125000 0.500000
vt 0.125000 0.750000
vt 0.125000 0.500000
vt 0.125000 0.750000
vt 0.125000 0.500000
vt 0.125000 0.750000
vt 0.125000 0.750000
vt 0.125000 0.500000
vt 0.125000 0.750000
vt 0.125000 0.500000
vt 0.125000 0.500000
vt 0.125000 0.750000
vt 0.125000 0.500000
vt 0.125000 0.750000
vt 0.875000 0.750000
vt 0.696262 0.500000
vt 0.875000 0.500000
vt 0.375000 0.250000
vt 0.625000 0.250000
vt 0.625000 0.428738
vt 0.375000 0.449017
vt 0.375000 0.800983
vt 0.625000 0.821262
vt 0.625000 1.000000
vt 0.375000 1.000000
vt 0.875000 0.750000
vt 0.696262 0.500000
vt 0.875000 0.500000
vt 0.375000 0.250000
vt 0.625000 0.250000
vt 0.625000 0.428738
vt 0.375000 0.449017
vt 0.375000 0.800983
vt 0.625000 0.821262
vt 0.625000 1.000000
vt 0.375000 1.000000
vt 0.875000 0.750000
vt 0.696262 0.500000
vt 0.875000 0.500000
vt 0.375000 0.250000
vt 0.625000 0.250000
vt 0.625000 0.428738
vt 0.375000 0.449017
vt 0.375000 0.800983
vt 0.625000 0.821262
vt 0.625000 1.000000
vt 0.375000 1.000000
vt 0.000000 0.000000
vt 0.000000 0.000000
vt 0.000000 0.000000
vt 0.324017 0.750000
vt 0.324017 0.750000
vt 0.324017 0.750000
vn 0.9629 0.2699 -0.0000
vn 0.9976 0.0691 -0.0000
vn -0.4814 0.2700 0.8339
vn -0.4988 0.0691 0.8640
vn -0.4814 0.2699 -0.8339
vn -0.4988 0.0690 -0.8640
vn 0.9740 -0.2264 0.0000
vn -0.4870 -0.2264 0.8435
vn -0.4870 -0.2264 -0.8435
vn 1.0000 0.0000 -0.0000
vn -0.5000 -0.0000 0.8660
vn -0.5000 -0.0000 -0.8660
vn 0.0019 1.0000 -0.0000
vn -0.7842 -0.6204 0.0000
vn -0.5699 0.1454 -0.8088
vn -0.5699 0.1453 -0.8088
vn -0.3099 0.3927 -0.8659
vn -0.5699 0.1453 0.8088
vn -0.5699 0.1454 0.8088
vn -0.3099 0.3927 0.8659
vn 0.2981 -0.9545 0.0000
vn 0.6194 -0.7851 0.0000
vn 0.6826 0.6980 0.2165
vn 0.8107 0.2507 0.5291
vn 0.9149 0.4036 0.0000
vn -0.5968 0.8024 -0.0000
vn -0.5685 0.7644 0.3042
vn 0.1532 -0.1500 0.9767
vn 0.3322 -0.3746 0.8657
vn 0.6826 0.6980 -0.2165
vn 0.2430 0.9700 0.0000
vn 0.3322 -0.3746 -0.8657
vn 0.1532 -0.1500 -0.9767
vn -0.5685 0.7644 -0.3042
vn 0.8107 0.2507 -0.5291
vn 0.4796 -0.5636 0.6725
vn 0.4796 -0.5636 -0.6725
vn -0.7686 -0.1491 -0.6221
vn -0.1010 -0.9949 0.0000
vn -0.7686 -0.1491 0.6221
usemtl Metal
s 4
f 1/1/1 3/2/1 6/3/2 4/4/2
s 5
f 3/5/3 2/6/3 5/7/4 6/8/4
s 6
f 2/9/5 1/10/5 4/11/6 5/12/6
s 7
f 4/4/2 6/3/2 7/13/7
s 8
f 6/8/4 5/7/4 7/13/8
s 9
f 5/12/6 4/11/6 7/13/9
usemtl BrownDark
s 1
f 8/14/10 9/15/10 3/2/1 1/1/1
s 2
f 9/16/11 10/17/11 2/6/3 3/5/3
s 3
f 10/18/12 8/19/12 1/10/5 2/9/5
s 10
f 8/14/13 10/17/13 9/15/13
s 11
f 8/14/14 9/15/14 23/20/14
s 25
f 13/21/15 11/22/16 8/19/17 23/23/17
s 26
f 15/24/18 13/25/19 23/20/20 9/16/20
s 27
f 11/26/21 15/27/21 9/15/22 8/14/22
usemtl GreenDark
s 12
f 12/28/23 18/29/24 14/30/25
s 13
f 13/31/26 14/32/26 18/33/27 17/34/27
s 14
f 19/35/28 20/36/28 16/37/29 15/38/29
s 15
f 16/39/30 20/40/31 12/41/23
s 16
f 11/42/32 12/43/32 20/44/33 19/45/33
s 17
f 21/46/34 22/47/34 14/48/26 13/49/26
s 18
f 14/50/25 22/51/35 16/52/30
s 19
f 15/53/29 16/54/29 22/55/36 21/56/36
s 20
f 17/57/37 18/58/37 12/59/32 11/60/32
s 21
f 12/61/23 14/62/25 16/63/30
s 22
f 13/21/15 17/64/38 11/22/16
s 23
f 11/26/21 19/65/39 15/27/21
s 24
f 15/24/18 21/66/40 13/25/19
