# Blender v2.80 (sub 75) OBJ File: 'SkeletonCharacterPack_export.blend'
# www.blender.org
mtllib arrow_green.mtl
o arrow_green_Cylinder.610
v 0.016021 0.221820 0.009250
v 0.015193 0.364274 0.008772
v -0.000000 0.221820 -0.018499
v -0.000000 0.364274 -0.017543
v -0.016021 0.221820 0.009250
v -0.015193 0.364274 0.008772
v 0.074995 0.301685 -0.043298
v 0.051533 0.403423 -0.029753
v -0.000000 0.301685 0.086596
v 0.000000 0.403423 0.059505
v -0.074995 0.301685 -0.043298
v -0.051533 0.403423 -0.029753
v 0.016021 -0.219799 0.009250
v -0.000000 -0.219799 -0.018499
v -0.016021 -0.219799 0.009250
v 0.034171 -0.240710 0.019729
v -0.000001 -0.240710 -0.039458
v -0.034173 -0.240709 0.019729
v -0.000001 -0.325592 -0.000000
vt 0.125000 0.500000
vt 0.125000 0.750000
vt 0.125000 0.750000
vt 0.125000 0.500000
vt 0.125000 0.500000
vt 0.125000 0.750000
vt 0.125000 0.750000
vt 0.125000 0.500000
vt 0.125000 0.500000
vt 0.125000 0.750000
vt 0.125000 0.750000
vt 0.125000 0.500000
vt 0.125000 0.500000
vt 0.125000 0.500000
vt 0.125000 0.750000
vt 0.125000 0.500000
vt 0.125000 0.750000
vt 0.125000 0.500000
vt 0.125000 0.750000
vt 0.875000 0.750000
vt 0.696262 0.500000
vt 0.875000 0.500000
vt 0.375000 0.250000
vt 0.625000 0.250000
vt 0.625000 0.428738
vt 0.375000 0.449017
vt 0.375000 0.800983
vt 0.625000 0.821262
vt 0.625000 1.000000
vt 0.375000 1.000000
vt 0.875000 0.750000
vt 0.696262 0.500000
vt 0.875000 0.500000
vt 0.375000 0.250000
vt 0.625000 0.250000
vt 0.625000 0.428738
vt 0.375000 0.449017
vt 0.375000 0.800983
vt 0.625000 0.821262
vt 0.625000 1.000000
vt 0.375000 1.000000
vt 0.875000 0.750000
vt 0.696262 0.500000
vt 0.875000 0.500000
vt 0.375000 0.250000
vt 0.625000 0.250000
vt 0.625000 0.428738
vt 0.375000 0.449017
vt 0.375000 0.800983
vt 0.625000 0.821262
vt 0.625000 1.000000
vt 0.375000 1.000000
vt 0.000000 0.000000
vt 0.000000 0.000000
vt 0.000000 0.000000
vt 0.324017 0.750000
vt 0.324017 0.750000
vt 0.324017 0.750000
vn 0.0000 0.2699 0.9629
vn 0.0000 0.0691 0.9976
vn -0.8339 0.2700 -0.4814
vn -0.8640 0.0691 -0.4988
vn 0.8339 0.2699 -0.4814
vn 0.8640 0.0690 -0.4988
vn -0.0000 -0.2264 0.9740
vn -0.8435 -0.2264 -0.4870
vn 0.8435 -0.2264 -0.4870
vn -0.0000 -0.3573 0.9340
vn -0.8089 -0.3573 -0.4670
vn 0.8089 -0.3573 -0.4670
vn -0.2165 0.9682 -0.1250
vn -0.5291 0.7917 0.3055
vn 0.0000 0.9682 0.2500
vn 0.0000 0.0287 -0.9996
vn -0.3042 0.0273 -0.9522
vn -0.9767 0.0273 0.2127
vn -0.8657 0.0287 0.4998
vn 0.2165 0.9682 -0.1250
vn 0.0000 0.7917 -0.6109
vn 0.8657 0.0287 0.4998
vn 0.9767 0.0273 0.2127
vn 0.3042 0.0273 -0.9522
vn 0.5291 0.7917 0.3055
vn -0.6725 0.0273 0.7396
vn 0.6725 0.0273 0.7396
vn 0.6221 -0.6957 -0.3592
vn -0.0000 -0.6957 0.7183
vn -0.6221 -0.6957 -0.3592
usemtl Metal
s 17
f 13/1/1 15/2/1 18/3/2 16/4/2
s 18
f 15/5/3 14/6/3 17/7/4 18/8/4
s 19
f 14/9/5 13/10/5 16/11/6 17/12/6
s 20
f 16/4/2 18/3/2 19/13/7
s 21
f 18/8/4 17/7/4 19/13/8
s 22
f 17/12/6 16/11/6 19/13/9
usemtl BrownDark
s 14
f 1/14/10 5/15/10 15/2/1 13/1/1
s 15
f 5/16/11 3/17/11 14/6/3 15/5/3
s 16
f 3/18/12 1/19/12 13/10/5 14/9/5
usemtl GreenDark
s 1
f 2/20/13 8/21/14 4/22/15
s 2
f 3/23/16 4/24/16 8/25/17 7/26/17
s 3
f 9/27/18 10/28/18 6/29/19 5/30/19
s 4
f 6/31/20 10/32/21 2/33/13
s 5
f 1/34/22 2/35/22 10/36/23 9/37/23
s 6
f 11/38/24 12/39/24 4/40/16 3/41/16
s 7
f 4/42/15 12/43/25 6/44/20
s 8
f 5/45/19 6/46/19 12/47/26 11/48/26
s 9
f 7/49/27 8/50/27 2/51/22 1/52/22
s 10
f 2/53/13 4/54/15 6/55/20
s 11
f 3/18/12 7/56/28 1/19/12
s 12
f 1/14/10 9/57/29 5/15/10
s 13
f 5/16/11 11/58/30 3/17/11
