# Blender v2.80 (sub 75) OBJ File: 'SkeletonCharacterPack_export.blend'
# www.blender.org
mtllib quiver_purple.mtl
o quiver_purple_Cube.7717
v 0.056759 -0.284625 -0.037113
v 0.052992 -0.254303 -0.067476
v 0.083227 -0.254733 -0.035401
v 0.055226 -0.274989 -0.058972
v 0.070873 -0.271184 -0.054465
v 0.073770 -0.254496 -0.057934
v 0.075692 -0.273755 -0.036492
v 0.084141 -0.052318 -0.073473
v 0.096915 -0.052516 -0.030173
v 0.056120 -0.267317 0.046119
v 0.070026 -0.052702 0.047186
v -0.056750 -0.284625 -0.037073
v -0.083217 -0.254733 -0.035343
v -0.053005 -0.254303 -0.067439
v -0.075683 -0.273755 -0.036439
v -0.070876 -0.271184 -0.054415
v -0.073776 -0.254496 -0.057882
v -0.055233 -0.274989 -0.058933
v -0.084147 -0.052318 -0.073414
v -0.096890 -0.052516 -0.030105
v -0.056074 -0.267317 0.046167
v -0.069970 -0.052702 0.047245
v 0.112975 -0.001872 -0.069726
v 0.097849 0.009671 -0.099297
v 0.107585 0.002646 -0.088481
v 0.097656 0.106393 -0.099336
v 0.086963 0.127503 -0.052402
v 0.107089 0.115701 -0.087410
v 0.089636 0.001165 0.056455
v 0.085427 0.125762 0.033461
v -0.112978 -0.001872 -0.069647
v -0.097873 0.009671 -0.099229
v -0.107601 0.002646 -0.088406
v -0.086953 0.127503 -0.052342
v -0.097679 0.106393 -0.099268
v -0.107104 0.115701 -0.087335
v -0.089574 0.001164 0.056531
v -0.085382 0.125762 0.033520
v 0.000031 -0.052628 0.058671
v 0.000022 0.143299 0.031180
v -0.000018 -0.027251 -0.119404
v -0.000009 -0.056932 -0.091456
v -0.000015 -0.047241 -0.110038
v -0.000018 0.125047 -0.119426
v 0.000007 0.143329 -0.056894
v -0.000015 0.145235 -0.108244
v 0.000017 -0.299427 0.000260
v 0.000026 -0.280597 0.057801
v 0.000004 -0.300093 -0.037455
v -0.000003 -0.290710 -0.058655
v -0.000006 -0.269771 -0.067608
v -0.000007 -0.052209 -0.084732
v 0.084277 0.084621 -0.073357
v 0.096919 0.084662 -0.030108
v 0.069985 0.084621 0.047242
v -0.084282 0.084621 -0.073298
v -0.096895 0.084662 -0.030040
v -0.069929 0.084621 0.047301
v -0.000007 0.084579 -0.084732
v 0.111444 0.120256 -0.069050
v 0.088928 0.116539 0.056230
v -0.088867 0.116539 0.056304
v -0.111446 0.120256 -0.068972
v 0.000031 0.141587 0.059712
v 0.000009 0.111430 -0.042205
v 0.000019 0.111772 0.007613
v 0.062494 0.099130 -0.039280
v 0.061626 0.097919 0.008163
v -0.061589 0.097920 0.008199
v -0.062479 0.099129 -0.039244
v -0.016015 0.127017 -0.026651
v -0.015187 0.269471 -0.026173
v 0.000006 0.127017 0.001098
v 0.000006 0.269471 0.000142
v 0.016027 0.127017 -0.026651
v 0.015199 0.269471 -0.026173
v -0.074989 0.206883 0.025897
v -0.051527 0.308620 0.012351
v 0.000006 0.206883 -0.103998
v 0.000006 0.308620 -0.076907
v 0.075001 0.206883 0.025897
v 0.051539 0.308620 0.012351
v 0.090928 0.108160 -0.008152
v 0.138872 0.242306 -0.008630
v 0.075873 0.113640 -0.035901
v 0.124595 0.247503 -0.034945
v 0.060818 0.119119 -0.008152
v 0.110318 0.252699 -0.008630
v 0.173660 0.163039 -0.060700
v 0.186410 0.266666 -0.047154
v 0.103189 0.188689 0.069195
v 0.137985 0.284291 0.042104
v 0.032717 0.214339 -0.060700
v 0.089559 0.301916 -0.047154
v -0.060806 0.119119 -0.008152
v -0.110306 0.252699 -0.008630
v -0.075861 0.113640 -0.035901
v -0.124583 0.247503 -0.034945
v -0.090916 0.108161 -0.008152
v -0.138860 0.242306 -0.008630
v -0.032705 0.214339 -0.060700
v -0.089547 0.301916 -0.047154
v -0.103176 0.188689 0.069195
v -0.137973 0.284291 0.042104
v -0.173648 0.163039 -0.060700
v -0.186398 0.266665 -0.047154
vt 0.875000 0.750000
vt 0.696262 0.500000
vt 0.875000 0.500000
vt 0.375000 0.250000
vt 0.625000 0.250000
vt 0.625000 0.428738
vt 0.375000 0.449017
vt 0.375000 0.800983
vt 0.625000 0.821262
vt 0.625000 1.000000
vt 0.375000 1.000000
vt 0.875000 0.750000
vt 0.696262 0.500000
vt 0.875000 0.500000
vt 0.375000 0.250000
vt 0.625000 0.250000
vt 0.625000 0.428738
vt 0.375000 0.449017
vt 0.375000 0.800983
vt 0.625000 0.821262
vt 0.625000 1.000000
vt 0.375000 1.000000
vt 0.875000 0.750000
vt 0.696262 0.500000
vt 0.875000 0.500000
vt 0.375000 0.250000
vt 0.625000 0.250000
vt 0.625000 0.428738
vt 0.375000 0.449017
vt 0.375000 0.800983
vt 0.625000 0.821262
vt 0.625000 1.000000
vt 0.375000 1.000000
vt 0.000000 0.000000
vt 0.000000 0.000000
vt 0.000000 0.000000
vt 0.125000 0.500000
vt 0.324017 0.750000
vt 0.125000 0.750000
vt 0.125000 0.500000
vt 0.324017 0.750000
vt 0.125000 0.750000
vt 0.125000 0.500000
vt 0.324017 0.750000
vt 0.125000 0.750000
vt 0.875000 0.750000
vt 0.696262 0.500000
vt 0.875000 0.500000
vt 0.375000 0.250000
vt 0.625000 0.250000
vt 0.625000 0.428738
vt 0.375000 0.449017
vt 0.375000 0.800983
vt 0.625000 0.821262
vt 0.625000 1.000000
vt 0.375000 1.000000
vt 0.875000 0.750000
vt 0.696262 0.500000
vt 0.875000 0.500000
vt 0.375000 0.250000
vt 0.625000 0.250000
vt 0.625000 0.428738
vt 0.375000 0.449017
vt 0.375000 0.800983
vt 0.625000 0.821262
vt 0.625000 1.000000
vt 0.375000 1.000000
vt 0.875000 0.750000
vt 0.696262 0.500000
vt 0.875000 0.500000
vt 0.375000 0.250000
vt 0.625000 0.250000
vt 0.625000 0.428738
vt 0.375000 0.449017
vt 0.375000 0.800983
vt 0.625000 0.821262
vt 0.625000 1.000000
vt 0.375000 1.000000
vt 0.000000 0.000000
vt 0.000000 0.000000
vt 0.000000 0.000000
vt 0.125000 0.500000
vt 0.324017 0.750000
vt 0.125000 0.750000
vt 0.125000 0.500000
vt 0.324017 0.750000
vt 0.125000 0.750000
vt 0.125000 0.500000
vt 0.324017 0.750000
vt 0.125000 0.750000
vt 0.875000 0.750000
vt 0.696262 0.500000
vt 0.875000 0.500000
vt 0.375000 0.250000
vt 0.625000 0.250000
vt 0.625000 0.428738
vt 0.375000 0.449017
vt 0.375000 0.800983
vt 0.625000 0.821262
vt 0.625000 1.000000
vt 0.375000 1.000000
vt 0.875000 0.750000
vt 0.696262 0.500000
vt 0.875000 0.500000
vt 0.375000 0.250000
vt 0.625000 0.250000
vt 0.625000 0.428738
vt 0.375000 0.449017
vt 0.375000 0.800983
vt 0.625000 0.821262
vt 0.625000 1.000000
vt 0.375000 1.000000
vt 0.875000 0.750000
vt 0.696262 0.500000
vt 0.875000 0.500000
vt 0.375000 0.250000
vt 0.625000 0.250000
vt 0.625000 0.428738
vt 0.375000 0.449017
vt 0.375000 0.800983
vt 0.625000 0.821262
vt 0.625000 1.000000
vt 0.375000 1.000000
vt 0.000000 0.000000
vt 0.000000 0.000000
vt 0.000000 0.000000
vt 0.125000 0.500000
vt 0.324017 0.750000
vt 0.125000 0.750000
vt 0.125000 0.500000
vt 0.324017 0.750000
vt 0.125000 0.750000
vt 0.125000 0.500000
vt 0.324017 0.750000
vt 0.125000 0.750000
vt 0.408252 0.875000
vt 0.591748 0.875000
vt 0.591748 0.958812
vt 0.408252 0.963411
vt 0.408154 0.572518
vt 0.591846 0.666442
vt 0.408154 0.677482
vt 0.408154 0.072518
vt 0.591846 0.166442
vt 0.408154 0.177482
vt 0.408252 0.375000
vt 0.591748 0.375000
vt 0.591748 0.458812
vt 0.408252 0.463411
vt 0.401726 0.894480
vt 0.599327 0.894480
vt 0.592286 0.980520
vt 0.408856 0.980520
vt 0.408856 0.769480
vt 0.592286 0.769480
vt 0.599327 0.855520
vt 0.401726 0.855520
vt 0.656626 0.682076
vt 0.656759 0.567416
vt 0.656759 0.567416
vt 0.656626 0.682076
vt 0.412236 0.540270
vt 0.587764 0.540270
vt 0.587764 0.709730
vt 0.412236 0.709730
vt 0.408883 0.270062
vt 0.592340 0.270062
vt 0.599261 0.354938
vt 0.401869 0.354938
vt 0.401869 0.395062
vt 0.599261 0.395062
vt 0.592340 0.479938
vt 0.408883 0.479938
vt 0.412236 0.040270
vt 0.587764 0.040270
vt 0.587764 0.209730
vt 0.412236 0.209730
vt 0.730508 0.561891
vt 0.730508 0.561891
vt 0.268146 0.534039
vt 0.356854 0.538308
vt 0.356854 0.711299
vt 0.268146 0.715586
vt 0.160009 0.679726
vt 0.160989 0.750000
vt 0.141135 0.750000
vt 0.125000 0.678788
vt 0.409492 1.000000
vt 0.390887 1.000000
vt 0.375000 0.964011
vt 0.375000 0.071212
vt 0.375000 0.031025
vt 0.409492 0.000000
vt 0.339991 0.679726
vt 0.375000 0.678788
vt 0.380296 0.745037
vt 0.339011 0.750000
vt 0.409493 0.750000
vt 0.408252 0.786589
vt 0.375000 0.785989
vt 0.160009 0.570273
vt 0.375000 0.178788
vt 0.593087 1.000000
vt 0.593087 0.000000
vt 0.591846 0.083558
vt 0.593087 0.250000
vt 0.250000 0.570273
vt 0.160989 0.500000
vt 0.250000 0.500000
vt 0.591846 0.583558
vt 0.409492 0.500000
vt 0.593087 0.500000
vt 0.375000 0.571212
vt 0.591748 0.791188
vt 0.593087 0.750000
vt 0.250000 0.679726
vt 0.250000 0.750000
vt 0.375000 0.875000
vt 0.339991 0.570273
vt 0.589757 1.000000
vt 0.408859 1.000000
vt 0.408859 0.000000
vt 0.589757 0.000000
vt 0.408859 0.750000
vt 0.589757 0.750000
vt 0.359890 0.750000
vt 0.274840 0.750000
vt 0.375000 0.850160
vt 0.375000 0.765110
vt 0.769538 0.715417
vt 0.855462 0.711308
vt 0.858133 0.750000
vt 0.773938 0.750000
vt 0.625000 0.898938
vt 0.625000 0.983133
vt 0.143146 0.711300
vt 0.231854 0.715586
vt 0.225160 0.750000
vt 0.140110 0.750000
vt 0.375000 0.984890
vt 0.375000 0.899840
vt 0.644538 0.711308
vt 0.730462 0.715416
vt 0.726062 0.750000
vt 0.641867 0.750000
vt 0.625000 0.766867
vt 0.625000 0.851062
vt 0.143146 0.538308
vt 0.231854 0.534039
vt 0.408252 0.286589
vt 0.591748 0.291188
vt 0.591748 0.875000
vt 0.591748 0.958812
vt 0.591748 0.458812
vt 0.591748 0.291188
vt 0.591846 0.166442
vt 0.593087 0.250000
vt 0.593087 0.000000
vt 0.591846 0.083558
vt 0.591846 0.666442
vt 0.593087 0.750000
vt 0.593087 0.500000
vt 0.591846 0.583558
vt 0.591748 0.791188
vt 0.843373 0.682076
vt 0.843240 0.567416
vt 0.855462 0.538220
vt 0.769525 0.687541
vt 0.644538 0.538220
vt 0.730462 0.534131
vt 0.769491 0.561890
vt 0.769538 0.534131
vt 0.769491 0.561890
vt 0.843240 0.567416
vt 0.843373 0.682076
vt 0.769525 0.687541
vt 0.730476 0.687541
vt 0.730476 0.687541
vn 0.2165 0.9682 0.1250
vn 0.5291 0.7917 -0.3055
vn -0.0000 0.9682 -0.2500
vn 0.0000 0.0287 0.9996
vn 0.3042 0.0273 0.9522
vn 0.9767 0.0273 -0.2127
vn 0.8657 0.0287 -0.4998
vn -0.2165 0.9682 0.1250
vn 0.0000 0.7917 0.6109
vn -0.8657 0.0287 -0.4998
vn -0.9767 0.0273 -0.2127
vn -0.3042 0.0273 0.9522
vn -0.5291 0.7917 -0.3055
vn 0.6725 0.0273 -0.7396
vn -0.6725 0.0273 -0.7396
vn -0.6221 -0.6957 0.3592
vn 0.0000 -0.6957 -0.7183
vn 0.6221 -0.6957 0.3592
vn 0.1277 0.9839 -0.1250
vn -0.2264 0.9249 0.3055
vn 0.3312 0.9099 0.2500
vn 0.0098 0.0269 -0.9996
vn -0.2765 0.1297 -0.9522
vn -0.9085 0.3597 0.2127
vn -0.8037 0.3230 0.4998
vn 0.5346 0.8358 -0.1250
vn 0.2708 0.7439 -0.6109
vn 0.8233 -0.2691 0.4998
vn 0.9272 -0.3084 0.2127
vn 0.2952 -0.0784 -0.9522
vn 0.7679 0.5630 0.3055
vn -0.6226 0.2557 0.7396
vn 0.6413 -0.2043 0.7396
vn 0.3466 -0.8665 -0.3592
vn -0.2379 -0.6537 0.7183
vn -0.8225 -0.4410 -0.3592
vn -0.5346 0.8358 -0.1250
vn -0.7679 0.5630 0.3055
vn -0.3312 0.9099 0.2500
vn -0.0098 0.0269 -0.9996
vn -0.2952 -0.0784 -0.9522
vn -0.9272 -0.3084 0.2127
vn -0.8233 -0.2691 0.4998
vn -0.1277 0.9839 -0.1250
vn -0.2708 0.7439 -0.6109
vn 0.8037 0.3230 0.4998
vn 0.9085 0.3597 0.2127
vn 0.2765 0.1297 -0.9522
vn 0.2264 0.9249 0.3055
vn -0.6413 -0.2043 0.7396
vn 0.6226 0.2557 0.7396
vn 0.8225 -0.4410 -0.3592
vn 0.2379 -0.6537 0.7183
vn -0.3466 -0.8665 -0.3592
vn -0.0003 -0.2528 -0.9675
vn -0.0003 -0.0306 -0.9995
vn 0.1236 -0.0313 -0.9918
vn 0.2345 -0.1933 -0.9527
vn -0.7072 -0.6423 0.2956
vn -0.9993 -0.0339 0.0160
vn -0.9802 -0.1966 -0.0219
vn 0.9802 -0.1966 -0.0224
vn 0.9993 -0.0340 0.0155
vn 0.7073 -0.6423 0.2953
vn 0.0004 -0.0102 0.9999
vn 0.0004 -0.0061 1.0000
vn -0.1708 -0.0051 0.9853
vn -0.1809 -0.0100 0.9835
vn -0.0003 -0.3060 -0.9520
vn -0.0003 0.3114 -0.9503
vn 0.4638 0.2076 -0.8612
vn 0.4757 -0.1743 -0.8622
vn -0.4763 -0.1743 -0.8619
vn -0.4644 0.2076 -0.8609
vn 0.7588 0.6514 0.0004
vn -0.9836 0.0089 0.1799
vn -0.9997 0.0098 -0.0208
vn -0.9997 0.0098 -0.0226
vn 0.0323 -0.0026 0.9995
vn 0.0004 -0.0026 1.0000
vn -0.0315 -0.0026 0.9995
vn 0.9997 0.0098 -0.0232
vn 0.9997 0.0098 -0.0214
vn 0.9837 0.0089 0.1794
vn -0.1427 0.5945 -0.7914
vn -0.0003 0.6006 -0.7996
vn -0.4676 -0.8817 0.0631
vn -0.4748 -0.8699 -0.1336
vn -0.4741 -0.8641 -0.1693
vn 0.3802 -0.9188 -0.1063
vn 0.2991 -0.6374 -0.7101
vn 0.6162 -0.5431 -0.5704
vn 0.7629 -0.6431 -0.0668
vn 0.7181 -0.1944 -0.6683
vn -0.3802 -0.9188 -0.1061
vn -0.7629 -0.6431 -0.0664
vn -0.6166 -0.5431 -0.5700
vn -0.2996 -0.6374 -0.7099
vn -0.7185 -0.1944 -0.6678
vn -0.2352 -0.1933 -0.9525
vn 0.9533 -0.0317 -0.3005
vn 0.9441 -0.0316 0.3282
vn 0.0001 -0.9809 0.1944
vn 0.0001 -0.9504 0.3110
vn -0.9439 -0.0316 0.3286
vn -0.1243 -0.0313 -0.9918
vn -0.9535 -0.0317 -0.2998
vn -0.0000 -0.9912 -0.1324
vn -0.0002 -0.7266 -0.6870
vn 0.8105 0.1686 -0.5609
vn 0.7488 -0.3907 -0.5354
vn -0.7491 -0.3907 -0.5349
vn -0.8109 0.1686 -0.5603
vn -0.0002 -0.7598 -0.6502
vn -0.0000 0.9980 -0.0630
vn 0.3069 0.9513 -0.0304
vn 0.2357 0.9705 -0.0517
vn -0.0000 0.9986 -0.0531
vn -0.0003 0.5561 -0.8311
vn 0.4747 -0.8699 -0.1339
vn 0.4740 -0.8641 -0.1696
vn -0.3069 0.9512 -0.0302
vn -0.2357 0.9705 -0.0515
vn 0.4677 -0.8817 0.0629
vn 0.1817 -0.0100 0.9833
vn 0.1716 -0.0051 0.9851
vn -0.0003 0.0004 -1.0000
vn 0.1332 0.0004 -0.9911
vn -0.1611 -0.0004 0.9869
vn 0.1619 -0.0004 0.9868
vn 0.9997 -0.0002 0.0247
vn 0.9445 -0.0000 0.3286
vn 0.9595 -0.0003 -0.2818
vn -0.9997 -0.0002 0.0253
vn -0.9597 -0.0003 -0.2811
vn -0.9443 -0.0000 0.3290
vn -0.1339 0.0004 -0.9910
vn 0.3340 0.9415 -0.0458
vn 0.3942 0.9107 0.1230
vn 0.3037 0.9392 0.1605
vn -0.3942 0.9107 0.1232
vn -0.3340 0.9415 -0.0457
vn -0.3035 0.9392 0.1607
vn 0.0001 0.9813 0.1927
vn -0.0000 0.9999 0.0108
vn 0.2059 0.9785 0.0105
vn -0.2059 0.9785 0.0106
vn -0.7588 0.6513 0.0007
vn 0.1422 0.5944 -0.7915
vn 0.0003 0.4083 0.9128
vn -0.0309 0.4081 0.9124
vn 0.0315 0.4082 0.9124
usemtl PurpleDark
s 73
f 72/1/1 78/2/2 74/3/3
s 74
f 73/4/4 74/5/4 78/6/5 77/7/5
s 75
f 79/8/6 80/9/6 76/10/7 75/11/7
s 76
f 76/12/8 80/13/9 72/14/1
s 77
f 71/15/10 72/16/10 80/17/11 79/18/11
s 78
f 81/19/12 82/20/12 74/21/4 73/22/4
s 79
f 74/23/3 82/24/13 76/25/8
s 80
f 75/26/7 76/27/7 82/28/14 81/29/14
s 81
f 77/30/15 78/31/15 72/32/10 71/33/10
s 82
f 72/34/1 74/35/3 76/36/8
s 83
f 73/37/16 77/38/16 71/39/16
s 84
f 71/40/17 79/41/17 75/42/17
s 85
f 75/43/18 81/44/18 73/45/18
s 86
f 84/46/19 90/47/20 86/48/21
s 87
f 85/49/22 86/50/22 90/51/23 89/52/23
s 88
f 91/53/24 92/54/24 88/55/25 87/56/25
s 89
f 88/57/26 92/58/27 84/59/19
s 90
f 83/60/28 84/61/28 92/62/29 91/63/29
s 91
f 93/64/30 94/65/30 86/66/22 85/67/22
s 92
f 86/68/21 94/69/31 88/70/26
s 93
f 87/71/25 88/72/25 94/73/32 93/74/32
s 94
f 89/75/33 90/76/33 84/77/28 83/78/28
s 95
f 84/79/19 86/80/21 88/81/26
s 96
f 85/82/34 89/83/34 83/84/34
s 97
f 83/85/35 91/86/35 87/87/35
s 98
f 87/88/36 93/89/36 85/90/36
s 99
f 96/91/37 102/92/38 98/93/39
s 100
f 97/94/40 98/95/40 102/96/41 101/97/41
s 101
f 103/98/42 104/99/42 100/100/43 99/101/43
s 102
f 100/102/44 104/103/45 96/104/37
s 103
f 95/105/46 96/106/46 104/107/47 103/108/47
s 104
f 105/109/48 106/110/48 98/111/40 97/112/40
s 105
f 98/113/39 106/114/49 100/115/44
s 106
f 99/116/43 100/117/43 106/118/50 105/119/50
s 107
f 101/120/51 102/121/51 96/122/46 95/123/46
s 108
f 96/124/37 98/125/39 100/126/44
s 109
f 97/127/52 101/128/52 95/129/52
s 110
f 95/130/53 103/131/53 99/132/53
s 111
f 99/133/54 105/134/54 97/135/54
usemtl WoodDark
s 1
f 51/136/55 52/137/56 8/138/57 2/139/58
s 2
f 21/140/59 20/141/60 13/142/61
s 3
f 3/143/62 9/144/63 10/145/64
s 4
f 48/146/65 39/147/66 22/148/67 21/149/68
s 5
f 41/150/69 44/151/70 26/152/71 24/153/72
s 6
f 32/154/73 35/155/74 44/156/70 41/157/69
s 7
f 34/158/75 38/159/75 69/160/75 70/161/75
s 8
f 37/162/76 62/163/76 63/164/77 31/165/78
s 9
f 29/166/79 61/167/79 64/168/80 39/169/80
s 10
f 39/170/80 64/171/80 62/172/81 37/173/81
s 11
f 23/174/82 60/175/83 61/176/84 29/177/84
s 12
f 38/159/85 40/178/86 66/179/86 69/160/85
s 13
f 39/180/87 37/181/87 31/182/88 42/183/89
s 14
f 1/184/90 4/185/91 5/186/92 7/187/93
s 15
f 2/139/58 6/188/94 5/189/92 4/190/91
s 16
f 3/143/62 7/191/93 5/192/92 6/193/94
s 17
f 12/194/95 15/195/96 16/196/97 18/197/98
s 18
f 13/142/61 17/198/99 16/196/97 15/195/96
s 19
f 14/199/100 18/200/98 16/196/97 17/198/99
s 20
f 10/201/64 1/184/90 7/187/93
s 21
f 10/202/64 7/191/93 3/143/62
s 22
f 2/139/58 8/203/57 6/188/94
s 23
f 6/193/94 8/204/101 9/205/63 3/143/62
s 24
f 11/206/102 10/145/64 9/144/63
s 25
f 47/207/103 10/208/64 48/209/104
s 26
f 20/210/60 21/211/59 22/212/105
s 27
f 12/194/95 21/213/59 15/195/96
s 28
f 15/195/96 21/140/59 13/142/61
s 29
f 19/214/106 14/199/100 17/198/99
s 30
f 19/215/107 17/198/99 13/142/61 20/141/60
s 31
f 49/216/108 12/194/95 18/197/98 50/217/109
s 32
f 50/218/109 18/200/98 14/199/100 51/136/55
s 33
f 47/207/103 21/219/59 12/194/95 49/216/108
s 34
f 24/153/72 26/152/71 28/220/110 25/221/111
s 35
f 25/222/111 28/223/110 60/175/83 23/174/82
s 36
f 35/155/74 32/154/73 33/224/112 36/225/113
s 37
f 36/225/113 33/224/112 31/165/78 63/164/77
s 38
f 42/183/89 31/182/88 33/226/112 43/227/114
s 39
f 43/228/114 33/229/112 32/154/73 41/157/69
s 40
f 45/230/115 60/231/116 28/232/117 46/233/118
s 41
f 46/234/119 28/235/110 26/152/71 44/151/70
s 42
f 23/236/120 42/237/121 43/238/114 25/239/111
s 43
f 25/240/111 43/241/114 41/150/69 24/153/72
s 44
f 63/242/122 45/243/115 46/244/118 36/245/123
s 45
f 36/246/113 46/247/119 44/156/70 35/155/74
s 46
f 29/248/124 39/249/124 42/237/121 23/236/120
s 47
f 10/201/64 47/207/103 49/216/108 1/184/90
s 48
f 4/190/91 50/218/109 51/136/55 2/139/58
s 49
f 1/184/90 49/216/108 50/217/109 4/185/91
s 50
f 21/219/59 47/207/103 48/209/104
s 51
f 10/250/125 11/251/126 39/147/66 48/146/65
s 52
f 14/199/100 19/214/106 52/137/56 51/136/55
s 53
f 8/138/57 52/137/56 59/252/127 53/253/128
s 54
f 22/148/67 39/147/66 58/254/129
s 55
f 39/147/66 11/251/126 55/255/130
s 56
f 11/206/102 9/144/63 54/256/131 55/257/132
s 57
f 9/205/63 8/204/101 53/258/133 54/259/131
s 58
f 19/215/107 20/141/60 57/260/134 56/261/135
s 59
f 20/210/60 22/212/105 58/262/136 57/263/134
s 60
f 52/137/56 19/214/106 56/264/137 59/252/127
s 61
f 27/265/138 30/266/139 61/267/140 60/231/116
s 62
f 45/268/115 27/265/138 60/231/116
s 63
f 38/159/141 34/158/142 63/242/122 62/269/143
s 64
f 34/158/142 45/243/115 63/242/122
s 65
f 40/178/144 38/159/141 62/269/143 64/270/144
s 66
f 30/266/139 40/271/144 64/272/144 61/267/140
s 67
f 66/273/145 68/274/146 67/275/146 65/276/145
s 68
f 69/160/147 66/179/145 65/277/145 70/161/147
s 69
f 30/266/148 27/265/148 67/275/148 68/274/148
s 70
f 40/271/86 30/266/149 68/274/149 66/273/86
s 71
f 45/278/150 34/158/151 70/161/151 65/277/150
s 72
f 27/265/152 45/268/150 65/276/150 67/275/152
