# Blender v2.80 (sub 75) OBJ File: 'SkeletonCharacterPack_export.blend'
# www.blender.org
mtllib spellbook.mtl
o spellbook_Cube.7753
v 0.207571 0.017253 -0.213826
v 0.208357 0.014887 0.286215
v 0.453536 0.016683 0.306929
v 0.453535 0.011887 -0.234101
v 0.457009 -0.008031 0.307149
v 0.457009 -0.012828 -0.233882
v 0.038618 -0.071626 -0.233361
v -0.000000 -0.027421 -0.233753
v 0.024875 -0.048390 -0.233567
v -0.000000 -0.075663 -0.216991
v 0.000000 -0.022624 0.307278
v 0.038618 -0.066830 0.307670
v 0.024875 -0.043593 0.307464
v 0.000000 -0.071156 0.291374
v 0.427248 -0.029671 0.274672
v 0.427248 -0.033888 -0.201027
v 0.055797 -0.089627 -0.200532
v 0.055797 -0.085410 0.275166
v 0.047206 -0.097994 -0.177703
v -0.002105 -0.110146 -0.193164
v -0.051415 -0.097994 -0.177703
v -0.051415 -0.097994 -0.003084
v -0.051415 -0.097994 0.269196
v -0.002105 -0.110146 -0.003115
v -0.002104 -0.110146 0.284423
v 0.047206 -0.097994 0.269196
v 0.047206 -0.097994 -0.003084
v 0.468743 0.003840 0.315860
v 0.467023 -0.000964 -0.243100
v 0.416908 0.004965 0.263991
v 0.412472 0.006277 -0.194620
v 0.383720 0.007547 -0.251582
v 0.384831 -0.002019 0.318721
v 0.379349 0.009390 -0.206797
v 0.383035 0.001826 0.273885
v 0.465221 0.011376 0.227996
v 0.458455 0.002647 -0.155335
v 0.423327 0.008451 0.229425
v 0.416865 0.006897 -0.159570
v 0.474841 -0.038096 0.315393
v 0.466083 -0.043298 -0.244828
v 0.432527 -0.048818 0.273978
v 0.419702 -0.048799 -0.206891
v 0.376005 -0.034095 -0.254000
v 0.384105 -0.044432 0.318486
v 0.378506 -0.044589 -0.211085
v 0.391029 -0.051715 0.275392
v 0.471033 -0.029947 0.220383
v 0.456818 -0.039393 -0.149924
v 0.430734 -0.044980 0.229235
v 0.415339 -0.046960 -0.162198
v 0.476743 -0.016908 0.320482
v 0.472673 -0.008199 0.218946
v 0.378332 -0.026025 0.276679
v 0.379774 -0.023679 0.323788
v 0.428300 -0.017666 0.219912
v 0.425982 -0.022269 0.270202
v 0.375545 -0.012669 -0.258278
v 0.370338 -0.017096 -0.211587
v 0.417363 -0.021750 -0.201910
v 0.416770 -0.020128 -0.151386
v 0.461909 -0.018332 -0.147053
v 0.471810 -0.022505 -0.248476
v -0.207571 0.040245 -0.213826
v -0.208357 0.037879 0.286215
v -0.453536 0.016683 0.306930
v -0.453536 0.011886 -0.234101
v -0.457009 -0.008031 0.307149
v -0.457009 -0.012828 -0.233882
v -0.038618 -0.071626 -0.233361
v -0.024875 -0.048390 -0.233567
v -0.038618 -0.066830 0.307670
v -0.024875 -0.043593 0.307464
v -0.427248 -0.029671 0.274672
v -0.427248 -0.033888 -0.201026
v -0.055797 -0.089627 -0.200532
v -0.055797 -0.085410 0.275166
v -0.467951 0.021657 0.330292
v -0.430912 0.014244 0.267430
v -0.386422 0.009944 0.312984
v -0.395829 0.009544 0.268944
v -0.472402 -0.005384 0.238982
v -0.475982 -0.019587 0.335817
v -0.446073 -0.037113 0.286634
v -0.387823 -0.032252 0.317101
v -0.405754 -0.042906 0.278075
v -0.475513 0.002059 0.338929
v -0.391921 -0.018206 0.273445
v -0.381298 -0.011476 0.318927
v -0.439423 -0.011571 0.278553
v -0.000000 -0.003204 -0.213441
v 0.039344 -0.032912 -0.213177
v 0.435451 0.022755 -0.213671
v -0.039344 -0.032912 -0.213177
v -0.435451 0.022755 -0.213671
v -0.161613 0.068745 -0.214078
v -0.236639 0.082306 -0.214199
v -0.094646 0.051670 -0.213927
v -0.042294 0.032753 -0.213759
v -0.016217 0.013845 -0.213592
v 0.236639 0.047278 -0.214199
v -0.402307 0.105284 -0.214402
v -0.418910 0.096584 -0.214325
v -0.427205 0.079763 -0.214176
v 0.418910 0.061557 -0.214325
v 0.435451 0.027187 0.286309
v 0.039344 -0.028480 0.286803
v -0.435451 0.027187 0.286310
v -0.039344 -0.028480 0.286803
v -0.236639 0.086738 0.285782
v -0.161612 0.073178 0.285902
v -0.094646 0.056103 0.286053
v -0.042294 0.037185 0.286221
v -0.016217 0.018277 0.286389
v 0.000000 0.001228 0.286540
v 0.224399 0.053611 0.272501
v -0.418910 0.101016 0.285655
v -0.402306 0.109716 0.285578
v -0.427205 0.084195 0.285804
v 0.418910 0.065989 0.285655
v 0.435451 0.024487 -0.018311
v 0.453535 0.013761 -0.022702
v 0.457009 -0.010954 -0.022483
v 0.427248 -0.032240 -0.015155
v 0.055797 -0.087979 -0.014661
v -0.055797 -0.087979 -0.014661
v -0.236639 0.084037 -0.018839
v -0.161613 0.070477 -0.018719
v -0.094646 0.053402 -0.018567
v -0.042294 0.034485 -0.018400
v -0.016217 0.015576 -0.018232
v 0.236639 0.049010 -0.018839
v -0.000000 -0.001472 -0.018081
v 0.418910 0.063289 -0.018966
v -0.435451 0.024100 -0.061995
v -0.435451 0.024874 0.025373
v -0.406139 0.019509 -0.020506
v -0.453536 0.014148 0.021017
v -0.453536 0.013373 -0.066420
v -0.457009 -0.010566 0.021257
v -0.457009 -0.011341 -0.066222
v -0.399080 -0.029374 -0.016960
v -0.427248 -0.031853 0.028602
v -0.427248 -0.032628 -0.058912
v -0.402307 0.106629 -0.062645
v -0.402307 0.107402 0.024560
v -0.359329 0.101055 -0.018990
v -0.418910 0.098703 0.024646
v -0.418910 0.097929 -0.062576
v -0.392685 0.089001 -0.018891
v -0.427205 0.081108 -0.062454
v -0.427205 0.081882 0.024821
v 0.359608 0.182736 0.185492
v 0.408355 0.095094 0.126441
v 0.311892 0.121797 0.258495
v 0.324984 0.067366 0.131294
v 0.350246 0.116216 0.188558
v 0.271423 0.064961 0.198119
v 0.374872 0.070506 0.057652
v 0.417360 0.073993 0.141562
v 0.324008 0.112636 0.269346
v 0.368613 0.173803 0.200614
v 0.368613 0.076068 0.200614
v 0.325411 0.070293 0.267140
vt 0.625000 0.750000
vt 0.875000 0.750000
vt 0.875000 0.750000
vt 0.625000 0.750000
vt 0.125000 0.750000
vt 0.375000 0.750000
vt 0.375000 0.750000
vt 0.145227 0.750000
vt 0.125000 0.625000
vt 0.125000 0.750000
vt 0.125000 0.625000
vt 0.472684 0.750000
vt 0.472684 0.750000
vt 0.375000 0.750000
vt 0.625000 0.750000
vt 0.854773 0.750000
vt 0.854773 0.750000
vt 0.625000 0.750000
vt 0.375000 0.750000
vt 0.145227 0.750000
vt 0.472684 0.750000
vt 0.135113 0.750000
vt 0.125000 0.750000
vt 0.125000 0.750000
vt 0.875000 0.688857
vt 0.875000 0.719428
vt 0.875000 0.750000
vt 0.875000 0.750000
vt 0.472684 0.750000
vt 0.625000 0.979773
vt 0.472684 0.979773
vt 0.375000 0.979773
vt 0.472684 0.979773
vt 0.375000 0.979773
vt 0.875000 0.750000
vt 0.472684 0.979773
vt 0.375000 0.979773
vt 0.375000 0.979773
vt 0.472684 0.979773
vt 0.472684 0.989886
vt 0.375000 0.989887
vt 0.135113 0.750000
vt 0.145227 0.750000
vt 0.625000 0.979773
vt 0.625000 0.989887
vt 0.875000 0.750000
vt 0.875000 0.750000
vt 0.625000 0.979773
vt 0.875000 0.625000
vt 0.875000 0.625000
vt 0.625000 0.750000
vt 0.625000 0.750000
vt 0.875000 0.750000
vt 0.875000 0.750000
vt 0.125000 0.750000
vt 0.145227 0.750000
vt 0.375000 0.750000
vt 0.375000 0.750000
vt 0.125000 0.750000
vt 0.452473 0.750000
vt 0.452482 0.750000
vt 0.375000 0.750000
vt 0.625000 0.750000
vt 0.625000 0.750000
vt 0.854773 0.750000
vt 0.854773 0.750000
vt 0.145227 0.750000
vt 0.375000 0.750000
vt 0.449687 0.750000
vt 0.875000 0.750000
vt 0.472684 0.774892
vt 0.625000 0.979773
vt 0.494527 0.750000
vt 0.492885 0.750000
vt 0.875000 0.750000
vt 0.875000 0.750000
vt 0.495680 0.750000
vt 0.492895 0.750000
vt 0.145227 0.750000
vt 0.472684 0.750000
vt 0.472684 0.750000
vt 0.450841 0.750000
vt 0.449033 0.625000
vt 0.464593 0.625520
vt 0.493953 0.625702
vt 0.637082 0.625702
vt 0.733224 0.625000
vt 0.130189 0.657038
vt 0.266776 0.625000
vt 0.777035 0.625000
vt 0.439459 0.625000
vt 0.816558 0.625000
vt 0.430822 0.625000
vt 0.865974 0.625000
vt 0.420023 0.625000
vt 0.872687 0.625000
vt 0.418556 0.625000
vt 0.418051 0.625000
vt 0.373852 0.642800
vt 0.472433 0.642800
vt 0.494439 0.642800
vt 0.494503 0.668156
vt 0.625000 0.668156
vt 0.626148 0.642800
vt 0.373852 0.642800
vt 0.375000 0.668156
vt 0.450864 0.668156
vt 0.450426 0.642800
vt 0.265190 0.647663
vt 0.362918 0.625702
vt 0.446134 0.625702
vt 0.133803 0.709789
vt 0.365163 0.726731
vt 0.133803 0.709789
vt 0.130189 0.657038
vt 0.265190 0.647663
vt 0.266776 0.625000
vt 0.222965 0.625000
vt 0.221149 0.647853
vt 0.183442 0.625000
vt 0.180039 0.649088
vt 0.134026 0.625000
vt 0.141480 0.649771
vt 0.127313 0.625000
vt 0.733224 0.625000
vt 0.449033 0.625000
vt 0.736417 0.670609
vt 0.364100 0.656524
vt 0.365746 0.671463
vt 0.644456 0.703407
vt 0.626148 0.642800
vt 0.644555 0.670666
vt 0.360010 0.649337
vt 0.365163 0.726731
vt 0.131222 0.655222
vt 0.860279 0.677439
vt 0.644456 0.703407
vt 0.780779 0.671335
vt 0.822084 0.674575
vt 0.854878 0.679301
vt 0.867178 0.692015
vt 0.643504 0.672548
vt 0.644555 0.670666
vt 0.860136 0.678264
vt 0.736417 0.670609
vt 0.644047 0.674853
vt 0.860279 0.677439
vt 0.860136 0.678264
vt 0.364100 0.656524
vt 0.472684 0.668156
vt 0.472433 0.642800
vt 0.470043 0.625702
vt 0.626148 0.642800
vt 0.549290 0.642800
vt 0.614488 0.638350
vt 0.521321 0.638350
vt 0.679686 0.633900
vt 0.570209 0.633900
vt 0.651717 0.629450
vt 0.591129 0.625000
vt 0.460733 0.633900
vt 0.679686 0.633900
vt 0.549290 0.642800
vt 0.626148 0.642800
vt 0.000000 0.000000
vt 0.000000 0.000000
vt 0.000000 0.000000
vt 0.000000 0.000000
vt 0.000000 0.000000
vt 0.342175 0.750000
vt 0.342175 0.750000
vt 0.375000 0.750000
vt 0.375000 0.750000
vt 0.589286 0.750000
vt 0.589286 0.750000
vt 0.625000 0.750000
vt 0.625000 0.750000
vt 0.657825 0.750000
vt 0.657825 0.750000
vt 0.410714 0.750000
vt 0.410714 0.750000
vt 0.342175 0.750000
vt 0.375000 0.750000
vt 0.375000 0.750000
vt 0.342175 0.750000
vt 0.589286 0.750000
vt 0.625000 0.750000
vt 0.625000 0.750000
vt 0.589286 0.750000
vt 0.657825 0.750000
vt 0.657825 0.750000
vt 0.410714 0.750000
vt 0.410714 0.750000
vt 0.589286 0.750000
vt 0.625000 0.750000
vt 0.342175 0.750000
vt 0.342175 0.750000
vt 0.657825 0.750000
vt 0.657825 0.750000
vt 0.410714 0.750000
vt 0.375000 0.750000
vt 0.625000 0.750000
vt 0.589286 0.750000
vt 0.375000 0.750000
vt 0.410714 0.750000
vt 0.589286 0.750000
vt 0.625000 0.750000
vt 0.625000 0.750000
vt 0.657825 0.750000
vt 0.657825 0.750000
vt 0.625000 0.750000
vt 0.625000 0.750000
vt 0.657825 0.750000
vt 0.657825 0.750000
vt 0.625000 0.750000
vt 0.657825 0.750000
vt 0.657825 0.750000
vt 0.625000 0.750000
vn -0.1173 0.8392 0.5311
vn -0.2208 -0.1996 -0.9547
vn -0.0000 -0.0089 -1.0000
vn -0.1384 -0.0906 -0.9862
vn 0.4446 0.5571 -0.7014
vn 0.5088 0.8609 -0.0076
vn -0.1173 0.8296 -0.5459
vn 0.1245 -0.8543 0.5046
vn 0.0004 -0.8772 0.4802
vn 0.0967 -0.9409 0.3246
vn 0.3195 -0.9253 0.2044
vn 0.0000 0.0089 1.0000
vn -0.2208 -0.1827 0.9581
vn -0.1384 -0.0731 0.9877
vn 0.0004 -0.8855 -0.4646
vn 0.1245 -0.8631 -0.4894
vn 0.3195 -0.9287 -0.1880
vn 0.0377 -0.9434 -0.3296
vn 0.9903 0.1392 -0.0012
vn -0.3104 -0.2707 -0.9112
vn -0.2603 -0.3169 -0.9120
vn -0.2603 -0.3007 0.9175
vn -0.3104 -0.2545 0.9159
vn 0.5829 -0.8125 0.0072
vn 0.3761 -0.9265 0.0082
vn 0.1484 -0.9889 0.0088
vn 0.7334 -0.6798 0.0031
vn 0.7513 -0.6599 0.0030
vn 0.7801 -0.6257 0.0029
vn -0.1019 -0.9018 -0.4199
vn -0.0935 -0.8849 0.4564
vn -0.9114 -0.4115 0.0019
vn -0.9041 -0.4274 0.0020
vn -0.9261 -0.3773 0.0017
vn 0.2393 -0.9710 -0.0000
vn 0.0000 -1.0000 -0.0000
vn -0.3694 -0.5129 -0.7749
vn -0.2393 -0.9710 0.0000
vn 0.7964 -0.6048 0.0028
vn -0.2923 -0.2109 0.9328
vn -0.1362 -0.4629 0.8759
vn -0.2047 -0.3599 0.9102
vn 0.4446 0.5695 0.6914
vn 0.1173 0.8392 0.5311
vn 0.2208 -0.1996 -0.9547
vn 0.1384 -0.0906 -0.9862
vn -0.4446 0.5571 -0.7014
vn -0.9903 0.1392 -0.0012
vn 0.1173 0.8296 -0.5459
vn -0.1245 -0.8543 0.5046
vn -0.3195 -0.9253 0.2044
vn -0.0975 -0.9424 0.3200
vn -0.0004 -0.8772 0.4802
vn 0.1384 -0.0731 0.9877
vn 0.2208 -0.1827 0.9581
vn -0.0004 -0.8855 -0.4646
vn 0.0112 -0.9003 -0.4351
vn -0.1245 -0.8631 -0.4894
vn -0.5829 -0.8125 0.0072
vn -0.4128 -0.9105 0.0232
vn -0.4222 -0.8861 0.1910
vn -0.5965 -0.7941 0.1161
vn 0.3104 -0.2707 -0.9112
vn 0.2603 -0.3169 -0.9120
vn 0.2603 -0.3007 0.9175
vn 0.3104 -0.2545 0.9159
vn -0.1580 -0.9872 0.0199
vn -0.1596 -0.9872 -0.0019
vn -0.1871 -0.9819 -0.0277
vn -0.9325 -0.3612 0.0017
vn 0.1035 -0.9036 -0.4156
vn 0.0935 -0.8849 0.4564
vn -0.4446 0.5695 0.6914
vn -0.4671 0.8639 -0.1883
vn -0.4749 0.8655 -0.1595
vn -0.5088 0.8609 -0.0076
vn 0.2921 -0.2492 0.9233
vn 0.3309 -0.1829 0.9258
vn 0.1941 -0.3991 0.8961
vn -0.3864 -0.9164 -0.1043
vn -0.5565 -0.8213 -0.1256
vn -0.1174 -0.9174 -0.3804
vn -0.5902 -0.6712 0.4484
vn -0.6078 -0.0703 -0.7910
vn -0.6701 0.0051 0.7422
vn -0.4102 0.8379 -0.3601
vn -0.5339 0.7120 0.4560
vn -0.5397 0.7910 0.2883
vn -0.5281 0.8406 0.1203
vn 0.1243 -0.9237 -0.3624
vn 0.3702 -0.5433 -0.7536
vn 0.1241 -0.4932 0.8610
vn -0.3251 -0.1489 0.9339
vn 0.1577 0.9875 -0.0088
vn 0.1374 0.9905 -0.0088
vn 0.0003 -0.0141 -0.9999
vn -0.0008 -0.0102 -0.9999
vn 0.0001 -0.0125 -0.9999
vn 0.2126 0.9771 -0.0087
vn 0.2938 0.9558 -0.0085
vn 0.4681 0.8837 -0.0078
vn 0.6586 0.7525 -0.0067
vn 0.7246 0.6892 -0.0061
vn 0.9199 0.3921 -0.0035
vn 0.9217 0.3879 -0.0041
vn -0.8969 0.4422 -0.0039
vn -0.9550 0.2965 -0.0026
vn -0.9551 0.2963 -0.0026
vn 0.0010 -0.0162 -0.9999
vn -0.4641 0.8857 -0.0079
vn -0.4241 0.8877 0.1793
vn -0.4062 0.8806 0.2440
vn -0.0007 -0.0104 -0.9999
vn 0.0011 -0.0164 -0.9999
vn -0.2182 0.9758 -0.0164
vn -0.3566 0.9290 -0.0987
vn -0.1581 0.9870 -0.0275
vn -0.2135 0.9769 -0.0126
vn -0.0210 0.1775 0.9839
vn -0.0664 0.3795 0.9228
vn -0.0034 0.0759 0.9971
vn -0.0013 0.0165 0.9999
vn -0.0167 0.1106 0.9937
vn 0.0008 0.0105 0.9999
vn 0.9235 0.3835 -0.0034
vn -0.0781 0.9969 -0.0088
vn -0.1437 0.9896 -0.0088
vn -0.1018 0.9911 -0.0856
vn -0.4062 0.8762 -0.2595
vn -0.4241 0.8844 -0.1950
vn -0.9897 0.1432 -0.0013
vn -0.7930 0.2334 -0.5627
vn -0.7579 0.3681 -0.5386
vn -0.8009 0.1895 -0.5681
vn -0.7918 0.1833 0.5826
vn -0.7578 0.3776 0.5321
vn -0.7868 0.2300 0.5728
vn -0.3477 0.8332 -0.4299
vn -0.3478 0.8406 0.4152
vn -0.7953 0.1310 0.5918
vn -0.8073 0.1433 -0.5724
vn -0.2087 0.9780 -0.0087
vn -0.7999 0.0852 -0.5940
vn -0.7168 0.0689 -0.6939
vn -0.7979 0.0848 -0.5968
vn -0.2983 0.8972 -0.3258
vn -0.1865 0.9704 -0.1533
vn -0.5738 0.7472 -0.3354
vn -0.2697 0.9359 -0.2266
vn -0.4053 0.8943 -0.1897
vn -0.4822 0.7601 -0.4357
vn -0.8690 0.1000 -0.4846
vn -0.1875 0.6815 0.7073
vn -0.2958 0.5412 0.7872
vn -0.2002 0.6669 0.7177
vn 0.9004 0.4341 -0.0299
vn 0.9604 0.2784 -0.0133
vn -0.0881 0.7823 0.6166
vn 0.8752 0.4820 -0.0425
vn 0.8388 -0.0003 0.5445
vn 0.8068 -0.0001 0.5908
vn 0.8122 0.0000 0.5834
vn 0.7712 0.0000 0.6366
vn 0.0611 -0.0499 0.9969
vn -0.0918 0.7621 0.6409
vn 0.1077 0.9927 0.0540
vn 0.0776 0.9944 0.0720
vn 0.0570 0.9948 0.0842
vn 0.8387 -0.0006 0.5446
vn 0.0254 0.9944 0.1028
vn 0.1047 0.9940 -0.0307
vn -0.0664 0.9939 0.0879
vn -0.0754 -0.9696 -0.2327
vn 0.0438 -0.9949 -0.0907
vn 0.0449 -0.9950 -0.0894
vn 0.3298 -0.9394 -0.0938
vn 0.2050 -0.9778 0.0437
vn 0.2062 -0.9776 0.0424
vn 0.0746 -0.9812 0.1778
vn 0.1630 -0.9850 0.0564
vn 0.9911 0.1299 -0.0286
vn 0.9909 0.1315 -0.0284
vn 0.9958 -0.0782 -0.0466
vn -0.9820 -0.1790 -0.0595
vn -0.9396 -0.3416 -0.0206
vn -0.9989 -0.0465 0.0003
vn -0.9993 -0.0370 -0.0108
vn -0.9986 -0.0016 -0.0519
vn -0.9774 -0.2016 -0.0633
vn -0.9748 -0.2102 -0.0747
vn -0.9854 -0.1692 -0.0205
vn 0.9944 -0.0389 0.0987
vn 0.9943 -0.0406 0.0987
vn 0.9634 -0.2471 0.1042
vn 0.1036 0.0235 -0.9943
vn 0.1038 0.0253 -0.9943
vn 0.0798 -0.1935 -0.9778
vn 0.0354 -0.0190 0.9992
vn 0.0355 -0.0209 0.9991
vn 0.0497 -0.2374 0.9701
vn -0.1559 -0.2517 0.9552
vn -0.2146 -0.1463 0.9657
vn -0.2236 -0.1525 0.9627
vn -0.1653 -0.1123 0.9798
vn -0.0510 -0.2147 -0.9753
vn -0.1338 -0.1278 -0.9827
vn -0.1258 -0.1200 -0.9848
vn -0.0822 -0.0776 -0.9936
vn -0.1799 -0.1726 -0.9684
vn -0.0772 0.3572 -0.9308
vn 0.0176 0.2239 0.9745
vn -0.9616 -0.2456 -0.1224
vn -0.9793 0.1990 0.0377
vn 0.9335 0.3585 -0.0067
vn -0.2753 -0.1881 0.9428
vn -0.0843 0.3180 0.9443
vn 0.1245 0.2662 -0.9558
vn 0.9768 0.1953 0.0873
vn -0.9952 -0.0859 0.0464
vn -0.9278 0.3628 -0.0869
vn -0.2596 0.9293 -0.2626
vn -0.0324 0.9902 -0.1358
vn -0.0429 0.9890 -0.1419
vn 0.1343 0.9902 -0.0377
vn -0.6550 -0.7437 -0.1333
vn -0.0744 -0.9528 0.2943
vn -0.9813 0.1874 -0.0445
vn -0.9991 0.0264 -0.0331
vn -0.9831 0.1778 -0.0438
vn 0.8863 -0.4100 -0.2151
vn 0.6644 -0.4187 -0.6191
vn 0.6821 -0.3760 -0.6272
vn 0.6592 -0.4303 -0.6167
vn 0.2174 0.0748 0.9732
vn 0.1857 -0.1438 0.9720
vn 0.2171 0.0729 0.9734
vn -0.1252 -0.2263 -0.9660
vn -0.1754 -0.1737 -0.9691
vn -0.1330 -0.2182 -0.9668
vn -0.0792 -0.2729 -0.9588
vn 0.2400 0.3124 0.9191
vn 0.6394 -0.4723 -0.6067
vn 0.9654 0.1293 -0.2263
vn -0.9394 0.3385 -0.0545
usemtl WoodDark
s 1
f 106/1/1 107/2/1 13/3/1 3/4/1
s 2
f 9/5/2 4/6/3 6/7/3 7/8/4
s 3
f 91/9/5 92/10/5 9/5/5 8/11/5
s 4
f 121/12/6 106/1/6 3/4/6 122/13/6
s 5
f 92/10/7 93/14/7 4/6/7 9/5/7
s 6
f 5/15/8 12/16/9 18/17/10 15/18/11
s 7
f 3/4/12 13/3/13 12/16/14 5/15/12
s 8
f 7/8/15 6/7/16 16/19/17 17/20/18
s 9
f 122/13/19 3/4/19 5/15/19 123/21/19
s 10
f 7/8/4 10/22/20 9/5/2
s 11
f 10/23/20 8/24/21 9/5/2
s 12
f 11/25/22 14/26/23 13/3/13
s 13
f 14/27/23 12/28/14 13/3/13
s 14
f 123/21/24 5/15/24 15/18/11 124/29/25
s 15
f 124/29/25 15/18/11 18/30/10 125/31/26
s 16
f 17/32/27 125/31/28 27/33/29 19/34/27
s 17
f 10/22/30 7/8/15 17/20/18
s 18
f 12/28/9 14/27/31 18/35/10
s 19
f 126/36/32 76/37/33 21/38/33 22/39/34
s 20
f 19/34/35 27/33/35 24/40/36 20/41/36
s 21
f 10/22/37 20/42/37 21/43/37
s 22
f 21/38/38 20/41/36 24/40/36 22/39/38
s 23
f 125/31/28 18/30/39 26/44/39 27/33/29
s 24
f 27/33/35 26/44/35 25/45/36 24/40/36
s 25
f 14/27/40 77/46/41 23/47/42
s 26
f 22/39/38 24/40/36 25/45/36 23/48/38
s 59
f 107/2/43 115/49/43 11/50/43 13/3/43
s 60
f 108/51/44 66/52/44 73/53/44 109/54/44
s 61
f 71/55/45 70/56/46 69/57/3 67/58/3
s 62
f 91/9/47 8/11/47 71/55/47 94/59/47
s 63
f 67/58/48 69/57/48 141/60/48 139/61/48
s 64
f 94/59/49 71/55/49 67/58/49 95/62/49
s 65
f 68/63/50 74/64/51 77/65/52 72/66/53
s 66
f 66/52/12 68/63/12 72/66/54 73/53/55
s 67
f 70/56/56 76/67/57 75/68/58 69/57/58
s 68
f 69/57/59 75/68/60 144/69/61 141/60/62
s 69
f 70/56/46 71/55/45 10/22/63
s 70
f 10/23/63 71/55/45 8/24/64
s 71
f 11/25/65 73/53/55 14/26/66
s 72
f 14/27/66 73/53/55 72/70/54
s 73
f 76/37/67 126/36/68 142/71/69
s 75
f 77/72/70 126/36/32 22/39/34 23/48/70
s 76
f 10/22/71 76/67/57 70/56/56
s 77
f 72/70/53 77/46/52 14/27/72
s 92
f 109/54/73 73/53/73 11/50/73 115/49/73
s 93
f 136/73/74 138/74/75 66/52/76 108/51/76
s 146
f 14/27/77 25/75/78 26/76/79
s 147
f 143/77/80 142/71/69 126/36/68 77/72/52
s 148
f 140/78/81 143/77/80 74/64/51 68/63/59
s 149
f 138/74/48 140/78/48 68/63/48 66/52/48
s 151
f 10/22/30 17/20/18 19/79/82
s 152
f 16/19/17 124/29/25 125/31/26 17/32/18
s 153
f 6/7/24 123/21/24 124/29/25 16/19/17
s 154
f 4/6/19 122/13/19 123/21/19 6/7/19
s 155
f 93/14/6 121/12/6 122/13/6 4/6/6
s 162
f 143/77/80 140/78/81 142/80/69
s 163
f 142/80/83 141/60/62 144/69/61
s 164
f 140/78/84 138/74/84 137/81/84 142/80/84
s 165
f 142/80/85 137/81/85 139/61/85 141/60/85
s 166
f 138/74/75 136/73/74 137/81/86
s 167
f 137/81/87 135/82/88 139/61/89
s 168
f 95/62/76 67/58/76 139/61/89 135/82/88
s 194
f 76/67/57 10/22/71 21/43/90
s 195
f 20/42/91 10/22/91 19/79/91
s 196
f 18/35/92 14/27/77 26/76/79
s 197
f 25/75/93 14/27/40 23/47/42
s 198
f 75/68/60 76/37/67 142/71/69 144/69/61
s 199
f 74/64/51 143/77/80 77/72/52
usemtl Beige
s 74
f 127/83/94 147/84/95 146/85/95 118/86/95 110/87/94
s 94
f 1/88/96 91/9/97 101/89/98
s 95
f 127/83/94 110/87/94 111/90/99 128/91/99
s 96
f 128/91/99 111/90/99 112/92/100 129/93/100
s 97
f 129/93/100 112/92/100 113/94/101 130/95/101
s 98
f 130/95/101 113/94/101 114/96/102 131/97/102
s 99
f 131/97/102 114/96/102 115/49/103 133/98/103
s 100
f 93/14/104 105/99/104 134/100/105 121/12/104
s 101
f 148/101/106 152/102/107 119/103/108 117/104/106
s 102
f 103/105/106 104/106/108 151/107/107 149/108/106
s 103
f 1/109/96 101/89/98 105/99/109
s 104
f 102/110/110 103/105/110 149/108/111 145/111/112
s 105
f 1/112/96 92/10/113 91/9/97
s 106
f 1/113/96 93/14/114 92/10/113
s 107
f 64/114/3 94/59/3 95/62/3
s 108
f 64/115/3 91/9/3 94/59/3
s 109
f 64/116/3 97/117/3 96/118/3
s 110
f 64/119/3 96/118/3 98/120/3
s 111
f 64/121/3 98/120/3 99/122/3
s 112
f 64/123/3 99/122/3 100/124/3
s 113
f 115/49/115 116/125/116 132/126/117 133/98/118
s 114
f 2/127/119 116/125/120 115/49/121
s 115
f 64/128/3 103/105/3 102/110/3
s 116
f 64/129/3 104/106/3 103/105/3
s 117
f 2/130/119 106/1/122 120/131/123
s 118
f 120/131/123 116/125/120 2/132/119
s 119
f 64/133/3 102/110/3 97/117/3
s 120
f 64/134/3 95/62/3 104/106/3
s 121
f 64/135/3 100/124/3 91/9/3
s 122
f 2/136/119 107/2/124 106/1/122
s 123
f 65/137/12 108/51/12 109/54/12
s 124
f 65/138/12 111/90/12 110/87/12
s 125
f 65/139/12 112/92/12 111/90/12
s 126
f 65/140/12 113/94/12 112/92/12
s 127
f 65/141/12 114/96/12 113/94/12
s 128
f 65/142/12 118/86/12 117/104/12
s 129
f 65/143/12 117/104/12 119/103/12
s 130
f 134/100/105 120/131/125 106/1/104 121/12/104
s 131
f 105/99/126 101/89/127 132/126/117 134/100/128
s 132
f 2/144/119 115/49/121 107/2/124
s 133
f 65/145/12 110/87/12 118/86/12
s 134
f 65/146/12 119/103/12 108/51/12
s 135
f 65/147/12 109/54/12 115/49/12
s 136
f 65/148/12 115/49/12 114/96/12
s 137
f 105/99/109 93/14/114 1/149/96
s 138
f 146/85/129 148/101/130 117/104/110 118/86/110
s 139
f 97/117/94 102/110/95 145/111/95 147/84/95 127/83/94
s 140
f 100/124/102 131/97/102 133/98/103 91/9/103
s 141
f 99/122/101 130/95/101 131/97/102 100/124/102
s 142
f 98/120/100 129/93/100 130/95/101 99/122/101
s 143
f 96/118/99 128/91/99 129/93/100 98/120/100
s 144
f 97/117/94 127/83/94 128/91/99 96/118/99
s 145
f 135/82/131 151/107/107 104/106/108 95/62/131
s 150
f 108/51/131 119/103/108 152/102/107 136/73/131
s 156
f 152/102/132 148/101/133 150/150/134
s 157
f 150/151/135 149/108/136 151/107/137
s 158
f 148/101/130 146/85/129 147/152/138 150/151/138
s 159
f 150/151/139 147/152/139 145/111/112 149/108/111
s 160
f 151/107/137 135/82/140 137/81/140 150/150/135
s 161
f 150/150/134 137/81/141 136/73/141 152/102/132
s 169
f 132/126/117 101/89/127 91/9/142 133/98/118
s 170
f 153/153/143 154/154/144 157/155/145
s 171
f 154/154/146 134/100/128 159/156/147
s 172
f 155/157/148 156/158/149 158/159/150
s 173
f 156/158/149 155/157/148 157/155/151
s 174
f 132/160/117 116/125/116 158/159/150
s 175
f 132/161/117 156/158/149 159/156/147
s 176
f 154/154/146 156/158/149 157/155/151
s 177
f 155/157/152 153/153/143 157/155/145
s 178
f 156/158/149 132/160/117 158/159/150
s 179
f 116/125/116 155/157/148 158/159/150
s 180
f 134/100/128 132/161/117 159/156/147
s 181
f 156/158/149 154/154/146 159/156/147
s 182
f 155/157/153 116/125/154 161/162/155
s 183
f 134/100/105 154/154/156 160/163/157
s 184
f 153/153/158 155/157/153 161/162/155 162/164/158
s 185
f 154/154/156 153/153/159 162/164/159 160/163/157
s 186
f 161/165/160 163/166/161 162/167/162
s 187
f 163/166/161 160/168/163 162/167/162
s 188
f 160/163/157 120/131/125 134/100/105
s 189
f 161/162/164 116/125/164 164/169/164
s 190
f 120/131/123 164/169/165 116/125/120
s 191
f 160/163/166 163/166/167 120/131/168
s 192
f 161/162/160 164/169/169 163/166/161
s 193
f 120/131/168 163/166/167 164/169/170
usemtl Stone
s 27
f 32/170/171 34/171/171 31/172/171 29/173/171
s 28
f 36/174/172 38/175/172 30/176/172 28/177/172
s 29
f 28/177/172 30/176/172 35/178/172 33/179/172
s 30
f 29/173/171 31/172/171 39/180/171 37/181/171
s 31
f 44/182/173 41/183/174 43/184/175 46/185/173
s 32
f 48/186/176 40/187/177 42/188/178 50/189/176
s 33
f 40/187/177 45/190/179 47/191/179 42/188/178
s 34
f 41/183/174 49/192/180 51/193/180 43/184/175
s 35
f 53/194/181 52/195/182 40/187/183 48/186/183
s 36
f 59/196/184 58/197/184 44/182/184 46/185/184
s 37
f 55/198/185 54/199/185 47/191/185 45/190/185
s 38
f 61/200/186 60/201/187 43/184/188 51/193/188
s 39
f 57/202/189 56/203/190 50/189/191 42/188/191
s 40
f 63/204/192 62/205/193 49/192/194 41/183/194
s 41
f 58/197/195 63/204/196 41/183/197 44/182/197
s 42
f 52/195/198 55/198/199 45/190/200 40/187/200
s 43
f 62/205/201 61/200/201 51/193/201 49/192/201
s 44
f 60/201/202 59/196/203 46/185/204 43/184/204
s 45
f 56/203/205 53/194/205 48/186/205 50/189/205
s 46
f 54/199/206 57/202/207 42/188/208 47/191/208
s 47
f 35/178/209 30/176/209 57/202/207 54/199/206
s 48
f 38/175/210 36/174/210 53/194/210 56/203/210
s 49
f 28/177/211 33/179/211 55/198/199 52/195/198
s 50
f 30/176/212 38/175/212 56/203/190 57/202/189
s 51
f 33/179/213 35/178/213 54/199/213 55/198/213
s 52
f 36/174/214 28/177/214 52/195/182 53/194/181
s 53
f 31/172/215 34/171/215 59/196/203 60/201/202
s 54
f 37/181/216 39/180/216 61/200/216 62/205/216
s 55
f 32/170/217 29/173/217 63/204/196 58/197/195
s 56
f 29/173/218 37/181/218 62/205/193 63/204/192
s 57
f 39/180/219 31/172/219 60/201/187 61/200/186
s 58
f 34/171/220 32/170/220 58/197/220 59/196/220
s 78
f 82/206/221 78/207/222 79/208/223
s 79
f 78/207/222 80/209/224 81/210/224 79/208/223
s 80
f 82/206/225 84/211/225 83/212/225
s 81
f 83/212/226 84/211/226 86/213/226 85/214/226
s 82
f 82/206/227 83/212/228 87/215/229
s 83
f 89/216/230 85/214/230 86/213/230 88/217/230
s 84
f 90/218/231 84/211/232 82/206/233
s 85
f 87/215/234 83/212/235 85/214/235 89/216/236
s 86
f 88/217/237 86/213/238 84/211/238 90/218/239
s 87
f 81/210/240 88/217/237 90/218/239 79/208/240
s 88
f 78/207/241 87/215/234 89/216/236 80/209/241
s 89
f 79/208/242 90/218/231 82/206/233
s 90
f 80/209/243 89/216/243 88/217/243 81/210/243
s 91
f 82/206/227 87/215/229 78/207/244
