# Blender v2.80 (sub 75) OBJ File: 'SkeletonCharacterPack_export.blend'
# www.blender.org
mtllib sword_broken_half.mtl
o sword_broken_half_Cube.7749
v 0.192627 0.298212 0.000000
v -0.192602 0.298214 0.000000
v 0.181206 0.296364 -0.064382
v -0.188463 0.252238 0.031652
v -0.181180 0.296365 0.064382
v 0.188488 0.252237 0.031652
v 0.188488 0.252237 -0.031652
v -0.181180 0.296366 -0.064382
v -0.188463 0.252238 -0.031652
v 0.181206 0.296364 0.064382
v 0.172799 0.335731 0.052001
v -0.167214 0.365336 0.000000
v 0.167239 0.365335 0.000000
v -0.172773 0.335732 -0.052001
v -0.172773 0.335732 0.052001
v 0.172799 0.335731 -0.052001
v 0.000011 0.634979 0.000000
v 0.038191 0.293828 0.019120
v 0.038191 0.293828 -0.019120
v -0.038168 0.293828 -0.019120
v -0.038168 0.293828 0.019120
v -0.022032 0.293828 0.033117
v -0.022032 0.293828 -0.033117
v 0.022054 0.293828 -0.033117
v 0.022054 0.293828 0.033117
v 0.101971 0.297869 0.000000
v -0.101972 0.297869 0.000000
v -0.000000 0.297869 -0.035045
v -0.000000 0.297869 0.035046
v 0.081970 0.283964 0.048781
v -0.081948 0.283964 0.048781
v -0.081948 0.283964 -0.048781
v 0.081970 0.283964 -0.048781
v -0.080157 0.252305 -0.024054
v 0.080179 0.252305 -0.024054
v -0.080157 0.252305 0.024054
v 0.080179 0.252305 0.024054
v -0.080922 0.317638 -0.041001
v 0.080944 0.317638 -0.041001
v -0.081253 0.341280 0.000000
v 0.081275 0.341279 0.000000
v -0.080922 0.317637 0.041001
v 0.080944 0.317637 0.041001
v 0.102411 0.125345 0.000000
v 0.102506 0.044490 0.000000
v -0.102283 0.104211 0.000000
v 0.038186 0.073169 0.022094
v -0.000000 0.131945 0.035194
v -0.000000 0.048446 0.035228
v 0.039441 0.103243 -0.021650
v -0.000000 0.047649 -0.035228
v -0.000000 0.131149 -0.035194
v 0.027157 0.632706 0.027101
v 0.048031 0.610886 0.027725
v 0.027157 0.632706 -0.027101
v 0.048031 0.610886 -0.027725
v -0.027137 0.632706 -0.027101
v -0.048011 0.610886 -0.027725
v -0.027137 0.632706 0.027101
v -0.048011 0.610886 0.027725
v 0.027566 0.610886 0.047728
v 0.027566 0.610886 -0.047728
v -0.027546 0.610886 -0.047728
v -0.027546 0.610886 0.047728
v -0.102594 -0.089447 0.000000
v 0.102663 -0.089447 0.000000
v -0.000000 -0.089447 0.035283
v -0.000000 -0.089447 -0.035286
vt 0.428506 1.000000
vt 0.425122 0.921566
vt 0.428039 0.875000
vt 0.444058 0.875000
vt 0.444132 1.000000
vt 0.428506 0.250000
vt 0.444211 0.250000
vt 0.445039 0.375000
vt 0.428133 0.375000
vt 0.425180 0.328434
vt 0.421572 0.326859
vt 0.418964 0.250000
vt 0.421515 0.634294
vt 0.418279 0.375000
vt 0.406148 0.500000
vt 0.375000 0.250000
vt 0.375000 0.375000
vt 0.375000 0.875000
vt 0.418185 0.875000
vt 0.421515 0.923141
vt 0.418964 1.000000
vt 0.375000 1.000000
vt 0.425180 0.607829
vt 0.375000 0.750000
vt 0.406148 0.750000
vt 0.437296 0.500000
vt 0.424633 0.910249
vt 0.423112 0.875000
vt 0.421977 0.338794
vt 0.423206 0.375000
vt 0.437296 0.750000
vt 0.375000 0.500000
vt 0.666667 0.750000
vt 0.583333 0.750000
vt 0.583333 0.990864
vt 0.666667 0.990865
vt 0.583333 1.000000
vt 0.583333 1.000000
vt 0.440200 1.000000
vt 0.190200 1.000000
vt 0.333333 1.000000
vt 0.333333 1.000000
vt 0.166667 0.750000
vt 0.083333 0.750000
vt 0.083333 0.990864
vt 0.166667 0.990865
vt 0.833333 0.750000
vt 0.833333 0.990864
vt 0.416667 0.750000
vt 0.416667 0.990864
vt 0.333333 0.990864
vt 0.333333 0.750000
vt 0.916667 0.750000
vt 0.916667 0.990864
vt 0.690201 1.000000
vt 0.833333 1.000000
vt 0.833333 1.000000
vt 0.940201 1.000000
vt 0.083333 1.000000
vt 0.083333 1.000000
vt 0.666667 1.000000
vt 0.166667 1.000000
vt 0.916667 1.000000
vt 0.416667 1.000000
vt 0.333333 0.625000
vt 0.500000 0.625000
vt 0.500000 0.500000
vt 0.333333 0.500000
vt 0.750000 0.875000
vt 0.916667 0.875000
vt 0.916667 0.625000
vt 0.750000 0.625000
vt 0.750000 0.500000
vt 0.583333 0.500000
vt 0.583333 0.625000
vt 0.916667 1.000000
vt 0.916667 1.000000
vt 0.750000 1.000000
vt 0.166667 0.500000
vt -0.000000 0.500000
vt -0.000000 0.500000
vt 1.000000 0.875000
vt 1.000000 1.000000
vt 0.333333 1.000000
vt 0.500000 1.000000
vt 0.500000 1.000000
vt 0.500000 0.500000
vt 0.583333 0.875000
vt 0.166667 0.875000
vt 0.333333 0.875000
vt 0.166667 0.625000
vt 0.166667 1.000000
vt 0.916667 0.500000
vt 1.000000 0.625000
vt 1.000000 0.500000
vt 1.000000 1.000000
vt 0.750000 0.500000
vt -0.000000 0.875000
vt -0.000000 1.000000
vt 0.750000 1.000000
vt 0.583333 1.000000
vt 0.333333 0.500000
vt -0.000000 0.625000
vt 0.916667 0.500000
vt 0.583333 1.000000
vt 0.500000 0.875000
vt 0.333333 1.000000
vt 0.583333 0.500000
vt 0.166667 0.500000
vt 0.166667 1.000000
vn 0.3250 0.0004 0.9457
vn 0.3250 0.0005 0.9457
vn 0.3250 0.0004 -0.9457
vn 0.3250 0.0006 -0.9457
vn 0.4349 -0.7478 -0.5016
vn -0.3253 0.0005 -0.9456
vn -0.3254 0.0004 -0.9456
vn 0.3250 0.0008 -0.9457
vn 0.3250 0.0007 -0.9457
vn 0.3250 0.0008 0.9457
vn 0.3250 0.0007 0.9457
vn 0.4902 0.7116 0.5033
vn -0.3253 0.0007 0.9456
vn -0.3253 0.0005 0.9456
vn -0.3253 0.0006 0.9456
vn -0.3254 0.0004 0.9456
vn -0.3253 0.0007 -0.9456
vn 0.6799 -0.0433 -0.7320
vn 0.4505 0.4342 -0.7801
vn 0.7596 0.4368 -0.4819
vn 0.0000 1.0000 -0.0000
vn 0.0418 0.9982 -0.0418
vn -0.0418 0.9982 -0.0418
vn -0.0418 0.9982 0.0418
vn -0.6799 -0.0433 0.7320
vn -0.4505 0.4342 0.7801
vn -0.7596 0.4368 0.4819
vn 0.9995 -0.0310 -0.0000
vn -0.0000 -0.0460 -0.9989
vn -0.9995 -0.0310 -0.0000
vn 0.6799 -0.0433 0.7320
vn 0.7596 0.4368 0.4819
vn 0.4505 0.4342 0.7801
vn -0.6799 -0.0433 -0.7320
vn -0.7596 0.4368 -0.4819
vn -0.4505 0.4342 -0.7801
vn 0.0418 0.9982 0.0418
vn 0.4676 0.7477 -0.4715
vn 0.4676 0.7477 0.4715
vn -0.4675 0.7477 -0.4715
vn -0.4675 0.7477 0.4715
vn -0.0000 -0.0460 0.9989
vn -0.0253 -0.6111 -0.7912
vn -0.0286 -0.6104 -0.7915
vn -0.0528 -0.6057 -0.7939
vn 0.1207 0.8578 0.4996
vn 0.1152 0.8585 0.4998
vn -0.1152 0.8585 0.4998
vn -0.1207 0.8578 0.4996
vn -0.1207 0.8578 -0.4996
vn -0.2294 0.8391 -0.4933
vn -0.1152 0.8585 -0.4998
vn -0.9883 0.1525 -0.0000
vn -0.9421 0.3054 0.1389
vn -0.9353 0.3538 0.0000
vn 0.9948 -0.0210 0.0996
vn 0.9883 0.1525 0.0000
vn 0.9706 0.1632 0.1769
vn 0.0853 0.2341 0.9685
vn 0.0887 0.2344 0.9681
vn 0.1715 0.2415 0.9551
vn -0.9948 -0.0210 -0.0996
vn -0.9706 0.1632 -0.1769
vn 0.9421 0.3054 -0.1389
vn 0.9706 0.1632 -0.1769
vn 0.1152 0.8585 -0.4998
vn 0.1207 0.8578 -0.4996
vn 0.0003 -1.0000 0.0000
vn -0.0003 -1.0000 0.0000
vn 0.0006 -1.0000 0.0000
vn -0.1715 0.2415 0.9551
vn -0.0887 0.2344 0.9681
vn -0.0853 0.2341 0.9685
vn -0.9706 0.1632 0.1769
vn 0.9353 0.3538 -0.0000
vn 0.9421 0.3054 0.1389
vn -0.0006 -1.0000 0.0000
vn 0.0286 -0.6104 0.7915
vn 0.0527 -0.6057 0.7939
vn 0.0253 -0.6111 0.7912
vn -0.9421 0.3054 -0.1389
vn 0.9948 -0.0210 -0.0996
vn 0.2294 0.8391 0.4933
vn -0.0528 -0.6057 0.7939
vn -0.0286 -0.6104 0.7915
vn -0.0253 -0.6111 0.7912
vn -0.0853 0.2341 -0.9685
vn -0.0887 0.2344 -0.9681
vn -0.1715 0.2415 -0.9551
vn 0.0253 -0.6111 -0.7912
vn 0.0286 -0.6104 -0.7915
vn -0.9948 -0.0210 0.0996
vn 0.2294 0.8391 -0.4933
vn 0.0853 0.2341 -0.9685
vn 0.0887 0.2344 -0.9681
vn -0.2294 0.8391 0.4933
vn 0.0527 -0.6057 -0.7939
vn 0.1715 0.2415 -0.9551
usemtl Stone
s 38
f 45/1/1 47/2/2 49/3/1 67/4/1 66/5/1
s 39
f 45/6/3 66/7/3 68/8/3 51/9/3 50/10/4
s 47
f 50/11/5 44/12/5 47/13/5
s 48
f 52/14/6 51/9/7 46/15/6
s 49
f 26/16/8 44/12/8 50/11/4 52/14/9 28/17/8
s 50
f 29/18/10 48/19/11 47/20/2 44/21/10 26/22/10
s 51
f 47/2/12 45/1/12 50/23/12
s 52
f 27/24/13 46/25/14 48/19/15 29/18/13
s 53
f 46/25/14 49/3/16 48/19/15
s 54
f 46/15/6 51/9/7 68/8/6 65/26/6
s 55
f 47/27/2 48/28/11 49/3/1
s 56
f 50/29/4 51/30/3 52/14/9
s 57
f 46/25/14 65/31/14 67/4/14 49/3/16
s 67
f 28/17/17 52/14/6 46/15/6 27/32/17
usemtl WoodDark
s 26
f 19/33/18 24/34/18 62/35/19 56/36/20
s 27
f 17/37/21 55/38/22 57/39/23
s 28
f 59/40/24 17/41/21 57/42/23
s 29
f 21/43/25 22/44/25 64/45/26 60/46/27
s 30
f 18/47/28 19/33/28 56/36/28 54/48/28
s 31
f 24/34/29 23/49/29 63/50/29 62/35/29
s 32
f 21/43/30 60/46/30 58/51/30 20/52/30
s 34
f 25/53/31 18/47/31 54/48/32 61/54/33
s 35
f 23/49/34 20/52/34 58/51/35 63/50/36
s 36
f 55/55/22 17/56/21 53/57/37
s 37
f 53/58/37 17/59/21 59/60/24
s 59
f 55/55/38 53/57/39 54/48/32 56/36/20
s 60
f 57/39/40 55/38/38 62/35/19 63/50/36
s 61
f 55/61/38 56/36/20 62/35/19
s 62
f 59/40/41 57/42/40 58/51/35 60/46/27
s 63
f 22/44/42 25/53/42 61/54/42 64/45/42
s 64
f 59/62/41 60/46/27 64/45/26
s 65
f 53/63/39 61/54/33 54/48/32
s 66
f 57/64/40 63/50/36 58/51/35
s 69
f 53/58/39 59/60/41 64/45/26 61/54/33
usemtl Stone2
s 1
f 35/65/43 33/66/44 3/67/45 7/68/45
s 2
f 40/69/46 42/70/47 43/71/48 41/72/49
s 3
f 41/72/50 13/73/51 16/74/51 39/75/52
s 4
f 2/76/53 15/77/54 12/78/55
s 5
f 6/79/56 1/80/57 10/81/58
s 6
f 31/82/59 42/70/60 15/77/61 5/83/61
s 7
f 9/84/62 2/85/53 8/86/63
s 8
f 16/74/64 1/87/57 3/67/65
s 9
f 38/88/66 40/69/67 41/72/50 39/75/52
s 10
f 36/89/68 34/90/68 35/65/69 37/91/69
s 11
f 4/92/70 9/84/70 34/90/68 36/89/68
s 12
f 11/93/71 43/71/72 30/94/73 10/95/71
s 13
f 15/77/54 2/96/53 5/83/74
s 14
f 1/97/57 13/73/75 11/93/76
s 15
f 37/91/69 35/65/69 7/68/77 6/79/77
s 16
f 31/98/78 5/99/79 4/92/79 36/89/80
s 17
f 2/100/53 12/78/55 14/101/81
s 18
f 3/67/65 1/102/57 7/68/82
s 19
f 12/78/83 15/77/83 42/70/47 40/69/46
s 20
f 10/81/84 30/103/85 37/91/86 6/79/84
s 21
f 10/95/58 1/104/57 11/93/76
s 22
f 30/103/85 31/98/78 36/89/80 37/91/86
s 23
f 33/66/87 39/75/88 16/74/89 3/67/89
s 24
f 8/86/63 2/105/53 14/101/81
s 25
f 34/90/90 32/106/91 33/66/44 35/65/43
s 33
f 4/92/92 2/107/53 9/84/62
s 40
f 14/101/93 12/78/93 40/69/67 38/88/66
s 41
f 1/108/57 16/74/64 13/73/75
s 42
f 32/106/94 38/88/95 39/75/88 33/66/87
s 43
f 11/93/96 13/73/96 41/72/49 43/71/48
s 44
f 7/68/82 1/109/57 6/79/56
s 45
f 34/90/90 9/84/97 8/86/97 32/106/91
s 46
f 42/70/60 31/82/59 30/94/73 43/71/72
s 58
f 38/88/95 32/106/94 8/86/98 14/101/98
s 68
f 5/99/74 2/110/53 4/92/92
